<?xml version="1.0" standalone="no"?>
<!DOCTYPE svg PUBLIC "-//W3C//DTD SVG 20010904//EN"
 "http://www.w3.org/TR/2001/REC-SVG-20010904/DTD/svg10.dtd">
<svg version="1.0" xmlns="http://www.w3.org/2000/svg"
 width="194.000000pt" height="259.000000pt" viewBox="0 0 194.000000 259.000000"
 preserveAspectRatio="xMidYMid meet">

<g transform="translate(0.000000,259.000000) scale(0.100000,-0.100000)"
fill="#ff637d" stroke="none">
<path d="M1441 2353 c-35 -16 -77 -27 -120 -30 -94 -6 -109 -10 -133 -38 -12
-14 -28 -25 -37 -25 -8 0 -23 -7 -33 -17 -28 -25 -264 -20 -293 7 -29 26 -90
40 -218 49 -78 6 -125 15 -156 29 -70 32 -100 4 -69 -64 8 -16 29 -34 54 -45
37 -15 47 -27 80 -94 24 -49 52 -89 76 -108 21 -16 41 -39 44 -51 4 -12 14
-32 24 -46 11 -16 19 -53 23 -102 6 -85 15 -107 62 -158 32 -35 57 -90 51
-113 -2 -7 -14 -44 -27 -84 -22 -68 -24 -71 -50 -66 -34 6 -85 -20 -95 -49
-12 -38 -7 -113 10 -146 21 -41 21 -42 -17 -42 -58 0 -142 -109 -116 -151 6
-10 37 -14 121 -15 62 0 122 -5 133 -11 12 -6 47 -11 78 -11 73 1 98 19 106
78 8 59 30 66 24 7 -6 -54 15 -80 78 -97 35 -10 50 -9 85 5 33 12 60 15 106
10 35 -4 74 -3 88 2 14 5 33 8 42 5 15 -3 16 -7 7 -25 -7 -12 -8 -19 -4 -15 5
4 15 2 23 -5 13 -10 14 -8 8 16 -4 16 -2 27 4 27 5 0 10 16 10 36 0 49 -71
126 -118 128 -18 0 -32 2 -32 4 0 1 7 19 15 39 31 74 18 154 -30 181 -12 6
-12 14 1 57 24 78 8 235 -25 235 -4 0 -9 -21 -9 -46 -1 -25 -9 -60 -18 -77
-18 -35 -53 -77 -65 -77 -4 0 -14 18 -23 41 -23 56 -8 107 40 144 44 33 81
109 90 184 5 39 15 67 35 92 16 20 29 41 29 45 0 5 14 26 30 48 16 21 32 52
36 69 3 16 19 41 34 54 16 13 35 44 44 68 8 25 29 57 46 72 39 32 55 70 39 89
-15 18 -24 17 -88 -13z m25 -38 c-11 -8 -25 -15 -30 -15 -6 1 0 7 14 15 32 19
40 18 16 0z m-1005 -35 c24 -11 38 -20 31 -20 -16 0 -82 27 -82 34 0 9 4 8 51
-14z m835 -23 c-22 -13 -48 -39 -60 -62 -11 -22 -24 -41 -28 -43 -13 -6 -9
-35 8 -67 9 -16 18 -41 21 -55 2 -13 9 -30 14 -37 12 -14 2 -53 -17 -68 -8 -5
-23 -48 -35 -95 -23 -95 -37 -121 -88 -166 -19 -17 -40 -46 -46 -65 -17 -51
-53 -64 -138 -51 -71 11 -107 32 -107 63 0 10 -18 38 -39 63 -43 49 -55 78
-71 176 -6 36 -16 78 -22 93 -9 22 -7 36 7 67 10 22 21 40 26 40 11 0 31 63
22 69 -5 3 -15 20 -25 36 -21 38 -81 81 -133 94 -33 9 -24 10 50 6 50 -3 107
-10 128 -16 33 -9 38 -14 33 -33 -5 -22 -4 -22 52 -15 31 4 101 8 156 8 78 0
102 4 117 17 11 9 19 12 19 6 0 -18 44 0 72 29 22 24 35 29 75 29 l48 0 -39
-23z m129 -9 c-16 -57 -30 -80 -56 -93 -21 -11 -30 -25 -35 -53 -7 -41 -29
-82 -44 -82 -6 0 -15 12 -21 28 -6 15 -15 35 -20 45 -6 11 -6 32 1 57 16 61
84 107 173 119 5 1 5 -9 2 -21z m-842 -22 c56 -17 107 -52 107 -73 0 -9 7 -24
16 -34 17 -19 12 -39 -11 -39 -8 0 -13 -8 -13 -17 0 -10 -4 -30 -10 -45 l-11
-28 -25 25 c-14 14 -30 25 -36 25 -6 0 -27 34 -45 75 -19 42 -46 87 -59 100
l-25 25 33 0 c18 0 53 -6 79 -14z m654 -721 c-7 -75 -29 -125 -56 -125 -34 0
-35 45 -3 89 16 22 35 54 42 71 7 16 15 30 18 30 3 0 2 -29 -1 -65z m-343 -66
c61 -12 128 -6 177 15 12 5 21 -5 38 -43 24 -57 29 -167 10 -249 -11 -46 -10
-52 10 -77 11 -15 21 -33 21 -39 0 -6 -7 -2 -15 8 -19 25 -30 14 -14 -12 10
-17 10 -23 0 -36 -19 -23 -61 -21 -61 2 0 10 -7 27 -15 38 -14 18 -14 17 -9
-13 7 -36 -5 -43 -30 -17 -20 19 -21 13 9 119 29 105 30 115 11 115 -8 0 -22
-22 -32 -52 -15 -48 -28 -67 -45 -68 -4 0 -9 22 -13 48 -6 48 -29 93 -40 81
-4 -3 -2 -48 4 -100 13 -111 3 -149 -37 -149 -22 0 -25 4 -21 29 2 17 1 28 -4
25 -4 -3 -8 -16 -8 -30 0 -22 -4 -25 -27 -22 -32 3 -43 38 -21 65 11 15 11 16
-4 10 -24 -9 -23 0 8 40 26 35 26 35 10 85 -28 86 -13 257 21 244 7 -3 42 -11
77 -17z m-154 -117 c0 -21 7 -64 15 -96 14 -55 14 -59 -5 -83 -11 -14 -20 -32
-20 -40 0 -8 -5 -11 -11 -7 -6 3 -8 17 -5 30 4 16 -3 36 -24 66 -58 82 -47
168 20 168 28 0 30 -3 30 -38z m509 -16 c16 -35 2 -88 -41 -147 -17 -24 -24
-41 -17 -45 6 -3 8 -18 5 -33 -5 -22 -4 -24 6 -10 22 27 56 40 85 33 32 -8 83
-52 83 -71 0 -21 -14 -15 -25 9 -6 13 -19 25 -30 27 -18 3 -17 1 5 -18 21 -17
23 -22 10 -31 -17 -11 -92 -13 -127 -4 -17 5 -23 14 -23 34 0 15 -9 39 -21 54
-17 21 -19 29 -9 41 7 8 15 56 18 106 l5 90 31 -3 c23 -2 35 -11 45 -32z
m-550 -215 c37 -32 24 -55 -33 -59 -62 -4 -96 4 -96 23 0 7 9 17 21 20 11 4
18 9 16 12 -9 8 -47 -17 -47 -31 0 -8 -7 -16 -15 -20 -25 -9 -17 14 16 45 38
36 103 40 138 10z"/>
<path d="M1083 2053 c-13 -2 -23 -11 -23 -19 0 -12 7 -14 30 -9 20 4 39 1 59
-11 36 -21 53 -11 25 16 -21 21 -57 30 -91 23z"/>
<path d="M840 1980 c-8 -5 -34 -10 -57 -10 -32 0 -43 -4 -43 -15 0 -8 6 -15
13 -15 10 0 14 -13 13 -43 -2 -72 41 -100 85 -56 18 18 20 30 17 70 -3 27 -1
52 4 55 9 6 1 24 -10 24 -4 0 -14 -5 -22 -10z m3 -67 c-3 -8 -13 -13 -22 -11
-23 5 -26 36 -4 40 21 5 33 -9 26 -29z"/>
<path d="M1076 1948 c-23 -33 -20 -75 9 -103 29 -30 39 -31 65 -5 26 26 26 70
-1 104 -25 32 -53 33 -73 4z m49 -23 c0 -28 -29 -25 -33 3 -3 19 0 23 15 20
10 -2 18 -12 18 -23z"/>
<path d="M924 1821 c-40 -10 -54 -19 -54 -36 0 -14 78 -105 90 -105 13 0 70
95 70 117 0 32 -37 40 -106 24z"/>
<path d="M990 1665 c0 -8 -12 -17 -27 -21 -47 -10 -49 -12 -12 -13 20 -1 39 2
43 7 4 4 12 8 17 8 5 1 12 2 15 3 9 2 -17 31 -27 31 -5 0 -9 -7 -9 -15z"/>
<path d="M1317 963 c-22 -6 -17 -27 7 -29 14 -2 14 -1 0 3 -14 4 -13 6 3 19
19 14 19 14 -10 7z"/>
<path d="M563 874 c-51 -24 -68 -44 -39 -44 7 0 39 12 71 26 41 19 53 29 44
35 -18 11 -15 12 -76 -17z"/>
<path d="M1365 657 c-8 -225 -7 -251 15 -255 22 -4 29 442 7 451 -13 5 -16
-24 -22 -196z"/>
<path d="M544 795 c-38 -26 -64 -107 -71 -214 -7 -114 1 -171 23 -171 14 0 15
9 9 60 l-7 61 83 -3 84 -3 3 -57 c3 -49 6 -58 22 -58 18 0 18 8 14 137 -4 108
-9 146 -25 184 -32 72 -87 99 -135 64z m93 -65 c26 -52 37 -176 16 -174 -7 1
-42 2 -78 3 l-65 1 0 44 c0 46 21 115 46 154 24 36 55 25 81 -28z"/>
<path d="M1002 760 c0 -19 2 -27 5 -17 2 9 2 25 0 35 -3 9 -5 1 -5 -18z"/>
<path d="M840 755 c-2 -16 -2 -40 -1 -51 2 -27 -27 -40 -36 -17 -4 9 -1 19 5
21 7 2 12 8 12 14 0 6 -9 3 -20 -7 -19 -18 -20 -17 -20 3 0 11 -4 24 -10 27
-12 8 -50 -12 -50 -27 0 -6 8 -4 18 5 27 25 34 21 29 -15 -2 -23 -9 -34 -22
-37 -17 -3 -18 -2 -5 14 13 16 13 18 0 13 -25 -8 -17 -33 13 -36 16 -2 27 1
27 9 0 9 3 9 14 0 7 -6 20 -9 29 -5 10 3 17 -1 20 -13 4 -14 5 -13 6 5 1 19 3
21 20 10 16 -10 23 -9 39 5 19 17 19 17 16 -10 -2 -15 -1 -20 2 -10 4 12 12
16 23 12 24 -7 44 19 36 45 -7 21 -21 25 -44 11 -9 -6 -21 -5 -33 2 -14 9 -23
9 -37 0 -18 -11 -20 -9 -24 25 -3 34 -4 35 -7 7z m70 -55 c0 -24 -26 -38 -42
-22 -16 16 -2 42 22 42 13 0 20 -7 20 -20z m67 4 c1 -5 -2 -16 -7 -24 -12 -20
-35 2 -26 25 6 17 27 16 33 -1z"/>
<path d="M1066 734 c-5 -14 -4 -15 9 -4 17 14 19 20 6 20 -5 0 -12 -7 -15 -16z"/>
<path d="M1106 733 c3 -12 -3 -22 -17 -28 -13 -5 -24 -17 -26 -25 -3 -10 -1
-9 7 3 6 9 18 17 25 17 19 0 19 -10 -1 -24 -13 -10 -13 -12 5 -12 18 0 21 7
21 38 0 20 -4 39 -9 42 -5 4 -7 -2 -5 -11z"/>
<path d="M1193 701 c2 -29 6 -35 27 -35 23 -1 25 1 21 34 -3 23 -6 28 -9 15
-2 -11 -9 -26 -16 -34 -9 -12 -12 -8 -18 20 l-6 34 1 -34z"/>
<path d="M1261 700 l0 -35 16 30 c15 27 17 28 24 10 6 -16 8 -17 8 -3 1 21
-15 32 -25 17 -4 -8 -9 -7 -15 2 -6 9 -9 2 -8 -21z"/>
<path d="M1008 703 c6 -2 18 -2 25 0 6 3 1 5 -13 5 -14 0 -19 -2 -12 -5z"/>
<path d="M1008 668 c6 -6 18 -8 28 -6 14 3 12 5 -9 10 -19 3 -25 2 -19 -4z"/>
<path d="M723 549 c4 -52 10 -104 13 -116 9 -33 34 -29 34 5 0 47 20 102 49
134 27 30 29 31 38 12 6 -10 13 -49 16 -86 6 -69 20 -108 37 -108 22 0 -15
203 -41 226 -17 15 -22 16 -44 4 -14 -8 -36 -30 -48 -49 l-22 -36 -5 49 c-3
30 -11 51 -19 54 -12 4 -13 -11 -8 -89z"/>
<path d="M1080 620 c0 -5 -17 -10 -39 -10 -44 0 -83 -26 -106 -70 -21 -41 -19
-63 10 -90 20 -19 37 -24 76 -24 l51 0 -4 -85 c-6 -103 -26 -151 -77 -179 -51
-28 -78 -32 -143 -23 -62 8 -76 0 -30 -17 55 -22 92 -23 146 -8 66 20 111 62
127 119 12 43 29 362 21 385 -5 14 -32 16 -32 2z m-2 -85 c3 -49 -6 -63 -44
-74 -75 -21 -99 35 -38 89 50 43 78 38 82 -15z"/>
<path d="M1204 616 c-75 -33 -100 -127 -47 -181 26 -25 33 -27 91 -23 43 3 68
10 80 22 16 17 14 17 -58 11 -66 -6 -77 -5 -92 12 -16 17 -14 18 46 18 103 0
139 41 101 114 -22 43 -62 52 -121 27z m90 -32 c21 -20 20 -37 -1 -57 -28 -24
-123 -27 -123 -4 0 17 38 53 70 66 34 13 36 13 54 -5z"/>
<path d="M1426 451 c-10 -16 5 -41 26 -41 14 0 19 6 16 22 -3 24 -32 36 -42
19z"/>
<path d="M1532 438 c3 -23 48 -41 48 -20 0 24 -14 42 -32 42 -14 0 -19 -6 -16
-22z"/>
<path d="M1636 451 c-10 -15 20 -45 38 -38 14 5 15 11 6 27 -11 20 -35 27 -44
11z"/>
</g>
</svg>
