<?xml version="1.0" standalone="no"?>
<!DOCTYPE svg PUBLIC "-//W3C//DTD SVG 20010904//EN"
 "http://www.w3.org/TR/2001/REC-SVG-20010904/DTD/svg10.dtd">
<svg version="1.0" xmlns="http://www.w3.org/2000/svg"
 width="500.000000pt" height="500.000000pt" viewBox="0 0 500.000000 500.000000"
 preserveAspectRatio="xMidYMid meet">

<g transform="translate(0.000000,500.000000) scale(0.100000,-0.100000)"
fill="#66D7D1" stroke="none">
<path d="M2614 4430 c-11 -4 -27 -23 -34 -42 -7 -18 -22 -43 -33 -56 -18 -19
-27 -21 -68 -16 -52 7 -66 -4 -49 -36 7 -12 21 -20 38 -20 48 0 54 -11 37 -59
-19 -56 -19 -67 4 -90 17 -17 17 -23 5 -81 -7 -34 -14 -64 -17 -66 -2 -2 -37
-8 -78 -14 -123 -15 -227 -39 -349 -80 -107 -35 -310 -123 -310 -133 0 -3 35
9 78 25 153 60 253 80 429 85 207 7 242 2 268 -40 13 -21 30 -33 48 -35 15 -2
27 -4 27 -5 0 -1 -27 -32 -60 -67 -69 -74 -105 -139 -95 -171 7 -21 24 -22 69
-4 18 8 18 7 1 -18 -22 -33 -13 -57 20 -57 22 0 25 -4 25 -38 0 -30 -7 -45
-31 -68 -38 -35 -129 -171 -129 -192 0 -11 7 -13 30 -8 17 3 30 4 30 2 0 -11
-54 -147 -70 -177 -31 -57 -27 -69 23 -68 23 1 56 4 72 8 20 5 37 2 51 -8 l21
-15 -34 -73 c-59 -127 -67 -185 -56 -411 l9 -197 -33 -89 c-37 -98 -42 -136
-17 -136 13 0 12 -5 -5 -34 -38 -61 -24 -86 35 -61 34 14 36 14 29 -3 -14 -37
-18 -112 -6 -112 9 0 11 -12 6 -42 -18 -112 -36 -182 -56 -215 l-22 -35 -69
69 c-79 78 -108 131 -108 194 0 76 7 87 50 85 50 -1 70 17 70 64 0 29 -6 43
-24 57 -13 11 -26 28 -28 39 -14 70 -232 -71 -259 -169 -40 -143 38 -369 154
-446 22 -14 50 -36 64 -49 13 -12 31 -22 40 -22 10 0 13 -5 8 -18 -20 -48 -24
-76 -14 -89 9 -10 2 -13 -40 -13 l-51 0 0 58 c0 75 -25 117 -86 143 -53 24
-108 19 -148 -12 -28 -22 -37 -24 -30 -6 7 19 -26 55 -56 62 -18 4 -34 0 -53
-15 -54 -43 -21 -126 47 -118 29 3 32 1 28 -19 -5 -28 -4 -28 -70 -3 -97 37
-224 107 -320 175 -48 34 -52 45 -18 45 28 0 56 33 56 65 0 11 -7 31 -16 43
-33 48 -132 11 -121 -45 2 -13 1 -23 -4 -23 -5 0 -43 39 -85 87 -233 266 -348
563 -347 903 1 223 44 408 142 596 58 113 50 113 -17 1 -130 -216 -204 -413
-248 -662 -26 -149 -25 -432 4 -585 73 -392 239 -707 514 -976 260 -255 573
-418 936 -486 154 -29 465 -31 612 -4 501 92 926 367 1197 776 463 696 382
1616 -195 2229 -51 55 -52 55 -33 75 28 30 41 70 41 124 0 36 -9 60 -35 102
-31 48 -35 61 -35 125 0 38 -5 77 -10 85 -10 16 -85 19 -154 6 -35 -7 -36 -6
-36 23 0 34 -38 85 -82 107 -43 22 -53 8 -38 -54 10 -43 9 -55 -4 -81 -19 -36
-27 -38 -50 -12 -16 17 -16 19 4 24 30 8 25 21 -20 51 -45 30 -49 45 -20 71
39 35 15 98 -41 110 -19 4 -37 18 -49 38 -25 41 -120 103 -179 117 -70 17
-177 -8 -212 -49 l-25 -31 -20 27 c-11 14 -29 26 -39 26 -11 0 -27 6 -35 13
-10 8 -48 14 -100 16 l-85 3 3 43 c5 62 -15 82 -64 62z m128 -160 c37 -7 64
-7 82 -1 37 15 32 6 -16 -29 -32 -24 -51 -30 -90 -30 -27 0 -65 -7 -85 -15
-19 -8 -37 -15 -38 -15 -5 0 33 70 45 85 15 18 28 18 102 5z m474 -21 c78 -20
121 -83 98 -143 -9 -23 -71 -21 -136 4 -80 30 -86 35 -65 58 9 10 17 24 17 30
0 14 -33 24 -55 16 -13 -5 -16 -3 -13 7 5 14 59 37 91 38 10 1 38 -4 63 -10z
m-251 -135 c-19 -37 -19 -55 0 -102 l16 -37 -23 23 c-28 27 -29 86 -3 126 23
34 30 28 10 -10z m-76 -81 c-18 -26 -63 -79 -100 -118 l-68 -70 47 0 c114 -1
200 -46 233 -121 12 -25 18 -48 15 -51 -2 -3 -11 10 -19 29 -18 42 -74 92
-124 109 -48 17 -178 16 -218 -2 -29 -14 -29 -14 35 -17 36 -2 70 -8 75 -14
12 -13 -116 -5 -155 10 -24 9 -22 10 32 36 62 29 179 138 238 219 44 61 52 53
9 -10z m215 9 c-53 -4 -58 -1 -49 26 6 20 6 20 50 -1 l45 -22 -46 -3z m274
-50 c12 -8 21 -16 19 -18 -5 -5 -97 35 -97 42 0 8 54 -9 78 -24z m-40 -32 c82
-38 172 -109 172 -135 0 -33 43 -98 80 -123 20 -14 34 -31 33 -40 -2 -10 -6
-45 -9 -78 l-7 -62 -45 35 c-61 47 -94 62 -146 69 -51 7 -106 -8 -132 -38
l-19 -20 40 21 c98 52 226 2 317 -123 44 -61 34 -62 -39 -5 l-68 53 37 -46
c21 -25 42 -58 48 -73 13 -35 13 -131 -1 -196 l-11 -52 -21 34 c-39 66 -70
109 -77 109 -11 0 -62 -42 -56 -47 2 -3 15 3 29 11 40 26 50 3 30 -67 -9 -31
-19 -57 -24 -57 -4 0 -15 10 -24 23 l-16 22 -44 -47 -43 -48 -7 28 c-3 15 -16
43 -28 62 -26 43 -116 140 -130 140 -5 0 15 -24 45 -52 81 -79 102 -130 106
-260 3 -65 0 -108 -5 -108 -6 0 -18 18 -28 40 -25 56 -33 58 -28 6 4 -33 -3
-70 -28 -145 -18 -56 -36 -101 -39 -101 -4 0 -15 25 -26 56 -20 60 -32 59 -15
-2 l10 -37 -40 39 c-23 21 -70 82 -105 134 -53 79 -64 90 -64 68 l0 -28 -44
32 c-31 21 -60 32 -96 36 -50 5 -51 5 -33 25 14 16 15 19 3 15 -81 -29 -214
-67 -253 -71 l-49 -5 33 34 c18 19 28 34 22 34 -6 0 -16 -7 -24 -16 -12 -14
-61 -44 -74 -44 -22 0 53 187 93 232 l35 39 -56 -25 c-31 -14 -57 -22 -57 -18
0 4 22 37 50 73 88 117 177 160 330 161 52 0 114 -4 137 -10 l42 -10 24 42
c104 178 163 365 155 495 l-3 63 40 -6 c22 -4 68 -20 103 -36z m295 -128 c-11
-14 -32 -29 -48 -34 -28 -7 -28 -7 8 23 20 16 39 39 43 52 7 20 8 20 12 3 2
-10 -5 -30 -15 -44z m29 -89 c-9 -35 -20 -63 -24 -63 -11 0 -10 12 7 61 24 70
25 72 29 68 2 -2 -3 -32 -12 -66z m237 -90 c15 -30 14 -88 -3 -122 -30 -57
-146 -140 -198 -141 -9 0 -27 20 -42 46 -27 49 -32 96 -20 188 l7 46 41 0 c45
0 113 27 134 53 12 14 16 13 41 -16 16 -18 33 -42 40 -54z m-1013 32 c38 -25
57 -79 49 -141 -10 -79 -18 -85 -97 -78 -115 11 -159 58 -124 131 l17 35 -26
-6 c-14 -4 -25 -3 -25 2 0 13 52 60 80 71 33 14 94 7 126 -14z m-214 -125 c4
-48 1 -50 -14 -9 -10 28 -13 30 -44 24 -39 -7 -45 1 -11 15 49 20 65 13 69
-30z m988 -170 c0 -5 -2 -10 -4 -10 -3 0 -8 5 -11 10 -3 6 -1 10 4 10 6 0 11
-4 11 -10z m-69 -455 c23 -70 24 -80 10 -83 -29 -7 -61 -45 -61 -73 0 -35 43
-71 79 -67 24 3 26 -1 33 -47 3 -27 7 -77 7 -110 1 -55 -1 -62 -36 -98 -37
-36 -38 -41 -38 -107 0 -64 -2 -70 -21 -70 -24 0 -50 -25 -56 -55 -4 -16 -8
-13 -22 19 -28 62 -57 189 -46 200 16 16 12 51 -9 77 -10 13 -23 47 -29 75
-16 75 -59 183 -87 220 -14 18 -25 36 -25 41 0 4 12 -7 26 -24 45 -58 124 -39
124 29 0 38 -25 68 -57 68 -28 0 -30 16 -3 25 25 8 65 61 74 98 3 15 13 27 21
27 8 0 20 10 26 23 12 21 14 20 38 -33 13 -30 37 -91 52 -135z m-860 42 c-8
-11 -5 -13 20 -9 18 3 37 -2 47 -11 30 -26 80 -47 113 -47 20 0 42 -9 55 -21
l23 -21 -6 23 c-3 16 7 7 30 -26 19 -27 33 -51 32 -53 -2 -2 -13 1 -24 8 -24
13 -27 3 -6 -24 34 -45 11 -36 -31 12 -25 28 -53 52 -63 52 -33 0 -118 30
-154 54 -34 23 -41 24 -94 16 -73 -12 -85 -11 -52 3 15 7 26 16 25 22 0 5 17
15 39 21 53 16 59 16 46 1z m39 -83 c30 -14 81 -34 112 -44 46 -14 69 -30 113
-76 57 -61 77 -67 51 -15 -9 16 -16 32 -16 35 0 11 57 -29 78 -55 22 -27 22
-30 8 -51 -23 -32 -19 -48 4 -18 l19 25 34 -33 35 -34 7 34 c12 59 38 138 46
138 15 0 58 -66 83 -130 36 -88 53 -155 71 -284 13 -96 21 -120 64 -202 l49
-92 -37 5 -36 6 20 -24 c10 -13 35 -41 54 -61 35 -38 35 -46 3 -29 -9 4 -29
11 -44 15 l-27 6 25 -62 c29 -75 30 -82 3 -75 -20 5 -21 3 -16 -30 5 -31 2
-42 -25 -72 -17 -19 -43 -60 -57 -90 -24 -53 -26 -65 -25 -203 0 -82 -2 -148
-6 -148 -3 0 -11 5 -18 12 -19 19 -14 -3 8 -40 22 -36 26 -52 8 -34 -23 23
-25 11 -8 -52 9 -35 31 -82 47 -103 38 -48 57 -83 44 -83 -14 0 -41 29 -41 44
0 7 -9 21 -20 31 -20 18 -29 8 -11 -11 6 -5 13 -28 17 -51 l7 -43 -34 0 c-26
0 -30 3 -21 12 21 21 13 47 -25 83 -45 41 -63 46 -33 8 14 -18 17 -30 10 -37
-16 -16 -12 -44 8 -55 13 -8 5 -10 -35 -11 l-53 0 0 35 c0 35 -27 102 -37 92
-2 -3 0 -15 7 -26 9 -17 8 -25 -5 -37 -19 -19 -19 -23 2 -46 15 -17 14 -18
-25 -18 -39 0 -42 2 -51 38 -6 20 -11 65 -12 99 -2 55 -4 61 -17 50 -13 -10
-15 -9 -8 8 24 65 76 273 86 345 16 113 16 285 1 338 -7 24 -9 52 -6 63 7 20
7 20 33 -3 19 -17 17 -12 -9 21 -77 98 -119 155 -119 163 0 5 29 -12 65 -37
74 -53 85 -43 30 29 l-34 45 52 -5 52 -4 -70 24 c-38 14 -71 25 -73 26 -2 0
11 -20 28 -44 16 -25 30 -47 30 -50 0 -3 -16 4 -35 15 -19 11 -39 18 -45 14
-12 -7 -46 63 -66 135 -9 34 -12 39 -13 19 -2 -51 -43 -164 -97 -269 -30 -58
-48 -96 -40 -86 9 10 17 24 19 30 9 25 21 -8 19 -57 -2 -94 17 -195 83 -435
36 -130 70 -250 75 -266 8 -24 8 -27 -5 -16 -13 11 -15 5 -15 -44 0 -32 -5
-77 -11 -102 -11 -43 -12 -44 -53 -44 -33 1 -37 3 -23 11 22 13 22 35 0 48
-15 8 -15 13 -5 36 17 37 14 44 -8 16 -13 -15 -20 -38 -20 -67 l0 -44 -52 0
c-47 0 -50 1 -32 14 17 13 17 17 6 37 -12 19 -11 25 7 50 30 41 9 36 -28 -6
-17 -19 -35 -35 -41 -35 -5 0 -10 -11 -10 -25 0 -14 5 -25 10 -25 6 0 10 -4
10 -9 0 -4 -11 -6 -25 -3 -30 5 -34 40 -10 86 9 16 14 31 11 33 -6 6 -46 -48
-46 -62 0 -13 -29 -29 -37 -21 -3 3 16 33 41 68 52 74 91 201 51 168 -12 -10
-15 -10 -15 1 -1 9 -5 8 -15 -5 -19 -25 -19 -40 0 -32 19 7 19 -2 0 -49 -13
-30 -18 -35 -30 -25 -17 14 -21 0 -5 -16 6 -6 1 -23 -16 -48 -14 -20 -28 -35
-31 -32 -3 3 0 12 7 21 13 16 7 47 -8 43 -5 -2 -18 8 -29 21 l-19 24 6 -57 c5
-48 4 -57 -12 -62 -22 -7 -38 2 -38 21 0 20 -22 65 -32 65 -4 0 -8 -16 -8 -35
0 -21 5 -35 12 -35 8 0 8 -3 3 -9 -6 -5 -36 -6 -67 -3 l-58 7 20 33 c11 18 34
41 51 50 17 9 38 23 47 30 29 22 -60 -17 -101 -44 -33 -22 -38 -23 -34 -7 3
10 9 50 13 88 l6 70 -32 -30 -31 -30 10 27 c6 15 20 47 31 70 24 50 25 54 5
38 -41 -34 -16 5 66 103 86 104 102 126 78 111 -12 -7 -11 9 12 124 l11 53 49
-42 c55 -46 88 -98 114 -178 14 -43 17 -74 12 -148 -4 -54 -3 -92 2 -88 5 3
11 0 13 -7 3 -7 12 3 21 21 20 40 21 49 5 33 -23 -23 -27 -11 -25 86 2 93 0
101 -32 167 -22 44 -55 89 -89 122 -47 45 -54 57 -50 83 5 34 4 34 -23 20 -23
-13 -24 -7 -8 74 7 31 10 59 7 62 -3 2 -22 -5 -42 -17 -20 -11 -36 -19 -36
-15 0 3 16 31 35 63 19 31 33 59 31 60 -2 2 -15 -1 -30 -6 -14 -6 -26 -7 -26
-3 0 3 12 38 27 76 l26 70 -13 151 c-16 178 -15 228 6 309 18 69 67 177 88
195 11 9 28 -4 89 -66 42 -43 97 -104 123 -135 26 -32 50 -56 52 -53 2 2 -19
38 -48 79 -51 74 -120 146 -140 146 -6 0 -10 5 -10 11 0 5 5 7 10 4 15 -9 12
1 -10 42 -19 35 -19 38 -3 45 30 11 46 9 103 -18z m238 -743 c12 -26 41 -69
65 -96 l43 -47 18 -167 c19 -186 13 -295 -24 -431 -11 -41 -28 -103 -38 -137
-9 -35 -19 -63 -22 -63 -6 0 -71 217 -112 375 -20 78 -32 156 -40 268 l-12
158 42 78 c23 43 42 86 42 95 0 29 15 16 38 -33z m590 -33 c-6 -18 -12 -34
-13 -36 -1 -2 -12 13 -23 33 l-21 35 34 0 c34 0 34 0 23 -32z m-1348 -174 c0
-3 -9 -26 -19 -52 -30 -72 -31 -102 -11 -198 16 -78 16 -92 4 -116 -16 -32
-43 -48 -77 -48 -60 0 -94 208 -49 296 21 40 71 92 107 112 22 12 45 15 45 6z
m1960 -236 c23 -39 26 -76 6 -103 -7 -11 -17 -35 -21 -53 -4 -18 -15 -38 -26
-45 -12 -7 -19 -23 -19 -43 0 -18 -8 -38 -20 -49 -11 -10 -20 -27 -20 -37 0
-10 -11 -30 -25 -44 -14 -14 -25 -33 -25 -42 -1 -31 -27 -55 -52 -48 -24 6
-128 101 -128 116 0 25 27 17 75 -24 29 -25 58 -46 64 -46 20 0 12 26 -19 60
-35 39 -48 81 -43 130 4 32 0 38 -46 74 -41 30 -49 41 -40 52 14 17 10 19 132
-74 62 -47 104 -71 114 -68 17 7 16 8 -41 80 -33 41 -46 119 -27 155 20 36 33
25 26 -23 -5 -31 -2 -52 9 -74 21 -41 55 -65 73 -50 23 19 14 38 -32 70 -25
18 -45 36 -45 40 0 19 32 19 63 -1 19 -12 39 -21 46 -21 17 0 13 29 -9 57 -19
25 -19 43 1 43 5 0 18 -15 29 -32z m-722 -160 c22 -36 74 -189 67 -196 -2 -3
-7 3 -11 12 -15 38 -21 12 -9 -39 7 -30 9 -55 5 -55 -5 0 -11 6 -13 13 -3 6
-6 -2 -6 -19 -1 -17 -4 -45 -7 -61 -6 -29 -7 -30 -42 -22 -66 15 -81 11 -45
-11 27 -16 83 -87 83 -105 0 -3 -10 -5 -23 -5 -26 0 -73 58 -101 124 -20 48
-20 57 0 49 13 -5 12 3 -7 38 -18 36 -19 41 -4 29 16 -14 17 -12 11 25 -9 57
-11 246 -2 272 l7 23 39 -20 c21 -11 47 -34 58 -52z m367 -118 c0 -16 -6 -26
-18 -28 -19 -4 -32 20 -23 44 9 25 41 13 41 -16z m51 -139 c32 -20 64 -74 64
-111 0 -32 -28 -80 -48 -80 -21 0 -25 4 -90 71 -46 48 -51 57 -38 68 13 11 23
4 67 -43 56 -60 65 -65 71 -38 9 39 -38 112 -73 112 -21 0 -33 16 -24 30 9 15
37 12 71 -9z m-1561 -101 c-3 -5 -11 -10 -16 -10 -6 0 -7 5 -4 10 3 6 11 10
16 10 6 0 7 -4 4 -10z m723 -98 c3 -27 0 -32 -17 -32 -16 0 -21 6 -21 28 0 53
33 56 38 4z m625 11 c4 -3 0 -14 -8 -23 -9 -10 -18 -33 -21 -51 -6 -42 26 -99
56 -99 30 0 25 35 -12 81 -27 33 -30 42 -18 50 11 7 24 -1 50 -31 56 -63 70
-54 44 29 -6 19 -4 22 12 19 38 -7 44 -111 6 -125 -9 -4 -31 -21 -48 -37 -18
-17 -45 -44 -62 -60 -16 -16 -37 -26 -48 -24 -10 2 -36 28 -57 58 -21 30 -43
57 -49 59 -21 7 -1 -88 26 -130 28 -41 27 -59 -2 -59 -10 0 -23 -9 -30 -21 -8
-13 -21 -19 -35 -17 -15 2 -27 -5 -39 -24 -40 -64 -103 -9 -132 113 -6 29 20
65 28 38 14 -50 39 -109 51 -125 14 -18 16 -18 29 -1 18 23 7 64 -29 119 -23
34 -24 39 -9 45 19 7 34 -8 76 -81 15 -25 32 -46 38 -46 25 0 5 66 -40 137
-19 29 0 54 25 33 13 -11 15 -10 10 2 -8 21 28 63 48 55 8 -3 34 -31 57 -61
22 -31 45 -56 50 -56 16 0 11 27 -10 62 -12 20 -20 51 -20 76 0 64 38 121 63
95z m-1012 -106 c-8 -8 -11 -7 -11 4 0 20 13 34 18 19 3 -7 -1 -17 -7 -23z
m749 7 c0 -8 -4 -12 -10 -9 -5 3 -10 13 -10 21 0 8 5 12 10 9 6 -3 10 -13 10
-21z m-565 -236 c17 -59 18 -96 6 -152 -12 -49 4 -88 33 -84 29 4 35 43 18
106 -8 29 -12 55 -9 58 16 16 34 -9 55 -75 13 -39 27 -71 31 -71 38 0 39 101
2 132 -27 21 -27 40 1 36 33 -5 68 -63 68 -114 0 -35 -5 -47 -31 -68 -33 -28
-46 -31 -68 -17 -10 6 -23 2 -42 -12 -25 -17 -32 -19 -55 -8 -21 9 -30 9 -43
-2 -22 -19 -155 -21 -171 -3 -9 12 -18 12 -57 0 -66 -20 -98 -17 -130 10 -21
18 -25 28 -17 36 9 8 21 7 49 -4 21 -9 41 -16 46 -16 16 0 9 47 -10 71 -21 26
-19 27 -36 -27 -8 -24 -30 -10 -27 17 1 13 3 41 5 61 1 20 7 42 14 49 18 18
43 3 43 -28 1 -16 13 -43 30 -63 17 -19 30 -43 30 -53 0 -32 25 -12 31 25 10
66 56 113 101 106 33 -5 32 -25 -2 -32 -41 -8 -65 -59 -49 -105 15 -43 51 -43
51 -1 1 3 -2 24 -6 48 -6 37 -4 42 13 42 21 0 25 -10 37 -73 5 -28 11 -37 23
-35 24 5 25 55 2 151 -26 104 -27 143 -4 156 28 15 51 -5 68 -61z m310 2 c4
-6 -8 -24 -26 -40 -28 -27 -31 -35 -26 -72 3 -22 13 -48 21 -57 15 -14 17 -14
32 1 15 14 14 20 -5 64 -15 32 -18 51 -11 58 13 13 29 -3 55 -57 24 -50 38
-51 45 -2 3 20 10 35 15 35 18 -1 23 -46 9 -78 -10 -26 -19 -32 -42 -32 -16 0
-35 -7 -42 -15 -18 -22 -66 -18 -89 7 -43 46 -39 121 9 169 30 31 45 36 55 19z"/>
<path d="M3314 3470 c-37 -15 -109 -111 -92 -124 39 -33 116 -76 134 -76 13 0
34 10 45 21 24 24 23 75 -5 129 -14 29 -14 31 2 28 9 -2 27 -21 39 -43 25 -44
32 -31 8 15 -25 48 -82 70 -131 50z m81 -112 c9 -35 -26 -72 -58 -62 -41 12
-67 34 -67 57 l0 22 18 -23 c14 -17 26 -23 48 -20 27 3 29 6 28 41 -1 32 1 36
12 25 7 -7 16 -25 19 -40z"/>
<path d="M2853 3268 c-31 -33 -29 -37 15 -31 80 11 178 -42 208 -112 l12 -30
7 27 c10 39 -10 89 -50 128 -32 31 -42 35 -103 38 -60 3 -69 2 -89 -20z"/>
<path d="M2853 3204 c-28 -12 -33 -19 -33 -48 0 -71 43 -136 90 -136 39 0 126
28 140 45 10 12 8 24 -11 62 -41 82 -110 111 -186 77z"/>
<path d="M2757 3674 c-39 -21 -28 -28 16 -9 20 8 43 12 52 9 12 -5 3 -14 -34
-35 -56 -33 -76 -60 -67 -95 9 -34 42 -51 114 -58 61 -7 62 -7 73 21 6 15 9
50 6 77 -8 88 -85 131 -160 90z m53 -67 c-14 -7 -26 -20 -28 -29 -5 -25 28
-50 60 -46 18 3 28 0 28 -8 0 -20 -37 -27 -75 -14 -49 16 -58 55 -21 87 15 13
35 23 44 23 12 0 9 -4 -8 -13z"/>
<path d="M2832 2184 c-41 -22 -56 -34 -42 -34 12 0 30 5 42 11 11 6 22 9 24 6
2 -2 -7 -30 -22 -61 -14 -32 -24 -59 -22 -61 6 -6 108 96 108 107 0 5 -16 -3
-35 -18 l-35 -26 25 56 c14 31 24 56 22 55 -1 0 -31 -16 -65 -35z"/>
<path d="M3060 2047 c0 -3 7 -24 15 -47 17 -48 19 -80 6 -80 -5 0 -12 10 -16
23 -4 13 -8 17 -11 10 -3 -7 6 -32 20 -55 l26 -43 0 55 c0 59 -15 126 -30 135
-6 4 -10 4 -10 2z"/>
<path d="M3066 1854 c4 -23 -2 -78 -11 -125 -20 -96 -24 -222 -7 -259 9 -20
10 -13 6 40 -4 40 0 100 10 158 17 100 20 176 6 207 -6 14 -7 7 -4 -21z"/>
<path d="M3990 1455 c0 -58 76 -115 94 -70 8 23 -1 37 -50 73 l-44 33 0 -36z"/>
<path d="M2814 780 c4 -14 11 -47 17 -73 6 -27 13 -46 15 -44 10 9 -9 107 -23
124 -13 17 -14 16 -9 -7z"/>
<path d="M2250 4363 c-145 -11 -259 -43 -347 -99 -55 -35 -65 -57 -35 -73 19
-10 46 -1 94 33 12 9 26 16 30 16 14 0 9 -27 -7 -40 -8 -7 -15 -21 -15 -31 0
-14 7 -19 30 -19 32 0 34 -6 59 -129 13 -64 25 -81 57 -81 39 0 46 29 27 118
-20 97 -16 105 66 127 31 9 72 20 92 25 73 20 116 95 74 130 -19 15 -77 26
-125 23z m46 -74 c3 -6 -1 -18 -9 -26 -20 -21 -158 -53 -173 -41 -17 13 -24
47 -11 55 34 21 182 30 193 12z"/>
<path d="M1670 4174 c-41 -18 -131 -107 -156 -155 -9 -19 -26 -45 -36 -60 -18
-25 -18 -26 1 -70 11 -24 21 -52 21 -61 0 -26 36 -40 80 -33 85 14 168 99 201
206 27 85 25 134 -6 164 -28 28 -55 31 -105 9z m38 -106 c4 -42 -38 -145 -68
-173 -29 -26 -55 -15 -54 22 2 44 52 171 72 183 30 18 47 7 50 -32z"/>
<path d="M1066 3899 c-34 -27 -37 -96 -5 -125 44 -39 44 -52 -1 -100 -60 -65
-112 -180 -114 -250 -1 -69 22 -94 90 -94 37 0 51 6 85 37 54 49 97 137 114
236 8 44 19 85 24 90 5 5 31 13 58 18 62 12 137 58 141 87 4 28 -20 29 -83 2
-26 -11 -64 -20 -85 -20 -36 0 -40 3 -58 43 -22 49 -44 70 -91 86 -44 14 -44
14 -75 -10z m90 -96 c-7 -7 -26 7 -26 19 0 6 6 6 15 -2 9 -7 13 -15 11 -17z
m4 -188 c0 -71 -69 -205 -105 -205 -37 0 -25 85 23 160 54 86 82 101 82 45z"/>
<path d="M2062 3503 c-35 -30 -38 -68 -8 -97 30 -31 69 -33 96 -6 27 27 26 71
-3 98 -28 27 -58 28 -85 5z"/>
<path d="M825 3346 c-18 -42 -15 -41 -84 -20 -60 17 -86 14 -124 -16 -60 -47
-44 -215 35 -367 46 -88 49 -99 43 -144 -6 -41 -4 -50 10 -56 10 -3 27 -1 38
6 17 11 24 9 51 -18 36 -35 63 -39 82 -13 24 31 15 59 -32 108 l-47 48 6 85
c3 47 13 110 22 139 18 61 32 65 117 32 29 -11 65 -20 80 -20 34 0 58 33 58
81 0 37 -1 38 -50 48 -28 6 -70 11 -93 11 -23 0 -47 4 -54 8 -6 4 -13 32 -15
61 -4 66 -22 77 -43 27z m-95 -152 c22 -9 40 -18 40 -19 0 -15 -33 -142 -38
-147 -13 -13 -27 7 -50 72 -38 111 -30 125 48 94z"/>
<path d="M1730 3290 c-43 -43 -10 -110 54 -110 25 0 39 7 50 22 35 49 7 108
-50 108 -21 0 -42 -8 -54 -20z"/>
<path d="M1432 3277 c-30 -32 -28 -71 4 -96 35 -27 59 -26 89 4 30 30 31 54 4
89 -26 33 -68 34 -97 3z"/>
<path d="M2165 3219 c-17 -4 -46 -24 -64 -43 -27 -27 -35 -45 -39 -84 -8 -92
44 -158 135 -168 93 -10 163 55 163 150 0 66 -27 111 -83 136 -46 21 -66 23
-112 9z"/>
<path d="M1740 3093 c-25 -32 -20 -69 12 -95 27 -23 49 -23 82 3 32 25 35 70
6 99 -29 29 -74 26 -100 -7z"/>
<path d="M1200 2943 c-75 -27 -60 -133 19 -133 57 0 89 77 48 116 -16 16 -48
24 -67 17z"/>
<path d="M1460 2889 c-83 -34 -124 -134 -85 -208 52 -102 184 -119 254 -33 26
31 31 45 31 92 0 60 -22 108 -63 134 -30 21 -105 29 -137 15z"/>
<path d="M2082 2784 c-28 -20 -31 -83 -4 -107 65 -59 153 41 89 101 -27 26
-54 28 -85 6z"/>
<path d="M2171 2650 c-18 -4 -49 -23 -68 -42 -59 -59 -58 -153 2 -213 63 -62
155 -60 217 6 35 37 38 45 38 97 0 39 -6 67 -20 89 -31 52 -103 79 -169 63z"/>
<path d="M1155 2481 c-88 -53 -97 -166 -20 -241 28 -28 44 -34 90 -38 47 -4
61 -1 94 21 128 85 71 277 -83 277 -32 0 -62 -7 -81 -19z"/>
<path d="M1807 2402 c-22 -25 -21 -75 1 -95 25 -22 75 -21 95 1 22 25 21 75
-1 95 -25 22 -75 21 -95 -1z"/>
<path d="M1305 2010 c-38 -42 -9 -120 45 -120 31 0 70 39 70 71 0 60 -76 92
-115 49z"/>
<path d="M1602 1997 c-12 -13 -22 -35 -22 -48 0 -31 38 -69 69 -69 28 0 71 42
71 70 0 28 -43 70 -73 70 -13 0 -33 -10 -45 -23z"/>
<path d="M1640 1838 c-76 -52 -97 -123 -58 -198 29 -56 73 -82 139 -82 79 0
137 53 146 135 14 120 -129 211 -227 145z"/>
</g>
</svg>
