<?xml version="1.0" standalone="no"?>
<!DOCTYPE svg PUBLIC "-//W3C//DTD SVG 20010904//EN"
 "http://www.w3.org/TR/2001/REC-SVG-20010904/DTD/svg10.dtd">
<svg version="1.0" xmlns="http://www.w3.org/2000/svg"
 width="235.000000pt" height="215.000000pt" viewBox="0 0 235.000000 215.000000"
 preserveAspectRatio="xMidYMid meet">

<g transform="translate(0.000000,215.000000) scale(0.100000,-0.100000)"
fill="#66D7D1" stroke="none">
<path d="M1548 2052 c-46 -41 -328 -283 -521 -446 -64 -54 -117 -102 -117
-105 0 -3 16 -23 35 -44 22 -24 40 -35 48 -30 6 4 109 90 227 191 275 236 256
219 323 276 l58 49 22 -19 c12 -11 42 -38 67 -59 25 -22 70 -61 100 -86 30
-26 137 -117 238 -203 100 -86 185 -156 190 -155 4 0 23 19 42 41 l34 40 -25
22 c-41 34 -404 343 -529 449 -63 55 -123 103 -132 108 -14 8 -27 1 -60 -29z"/>
<path d="M1861 1983 c3 -60 16 -81 91 -146 42 -37 79 -67 82 -67 3 0 6 54 6
120 l0 120 -90 0 -90 0 1 -27z"/>
<path d="M490 1921 c-160 -43 -311 -165 -375 -304 -48 -104 -59 -162 -52 -287
6 -113 26 -190 77 -291 69 -139 158 -236 440 -477 229 -197 361 -326 457 -449
47 -61 71 -83 87 -83 17 0 41 24 95 94 85 112 215 245 366 376 290 250 424
379 425 408 0 8 -18 12 -58 12 -58 0 -60 -1 -118 -58 -61 -59 -91 -86 -209
-187 -239 -205 -352 -314 -453 -438 l-47 -57 -55 62 c-88 101 -212 218 -425
402 -226 194 -315 287 -379 390 -147 237 -129 509 44 669 190 177 469 179 663
6 l59 -52 36 37 37 38 -60 54 c-67 61 -170 116 -260 139 -78 20 -214 18 -295
-4z"/>
<path d="M1448 1723 c-20 -21 -49 -64 -63 -96 -23 -50 -37 -65 -97 -105 -57
-38 -82 -63 -128 -132 -32 -47 -85 -116 -119 -155 -33 -38 -69 -86 -80 -105
-24 -45 -56 -74 -71 -65 -7 4 -9 17 -6 29 14 51 26 162 20 192 -9 48 -29 43
-97 -22 -35 -34 -63 -54 -71 -51 -8 3 -20 24 -27 46 -17 56 -33 54 -42 -6 -4
-31 -6 -31 -65 -34 -35 -2 -57 -8 -69 -21 -9 -10 -22 -18 -30 -18 -8 0 -32 -9
-53 -20 -71 -36 -62 -94 34 -212 40 -49 46 -63 46 -102 0 -44 1 -46 83 -113
45 -37 90 -74 99 -82 15 -11 28 -9 91 12 41 14 98 29 128 33 63 8 95 35 105
88 5 30 1 49 -26 101 -40 79 -51 151 -25 161 13 5 24 0 38 -17 l20 -24 -5 38
c-4 33 -2 37 18 37 23 0 81 -76 109 -144 12 -29 20 -35 59 -40 58 -9 104 -40
144 -100 44 -67 43 -104 -6 -159 -46 -50 -52 -64 -61 -139 -8 -64 -8 -64 59 2
20 19 55 52 78 72 37 32 42 42 42 78 0 23 -5 61 -11 85 -10 38 -7 61 21 179
17 75 36 136 40 136 5 0 48 -9 94 -20 66 -15 92 -17 113 -9 32 12 113 87 113
105 0 7 -36 47 -80 90 -74 72 -80 81 -74 109 5 27 -2 41 -45 98 -28 36 -51 76
-51 87 0 12 10 44 21 71 12 27 19 52 17 55 -3 2 -28 -16 -56 -41 -27 -25 -52
-45 -56 -45 -3 0 -7 46 -8 102 -3 120 -13 130 -70 71z"/>
<path d="M1910 1290 l0 -340 45 0 45 0 0 303 0 303 -45 37 -45 38 0 -341z"/>
</g>
</svg>
