<?xml version="1.0" standalone="no"?>
<!DOCTYPE svg PUBLIC "-//W3C//DTD SVG 20010904//EN"
 "http://www.w3.org/TR/2001/REC-SVG-20010904/DTD/svg10.dtd">
<svg version="1.0" xmlns="http://www.w3.org/2000/svg"
 width="8000.000000pt" height="5334.000000pt" viewBox="0 0 8000.000000 5334.000000"
 preserveAspectRatio="xMidYMid meet">

<g transform="translate(0.000000,5334.000000) scale(0.100000,-0.100000)"
fill="#000000" stroke="none">
<path d="M75910 53301 c-251 -151 -452 -436 -506 -718 -19 -100 -18 -276 2
-366 104 -465 597 -663 1064 -427 285 144 505 425 576 735 24 105 24 301 0
400 -35 145 -125 286 -239 376 l-49 39 -391 0 -392 0 -65 -39z"/>
<path d="M73855 52759 c-348 -50 -689 -338 -816 -689 -50 -139 -62 -215 -57
-374 4 -121 8 -153 32 -221 77 -226 257 -391 482 -441 121 -26 301 -16 421 24
114 39 187 75 278 140 218 153 382 398 441 657 26 113 24 303 -4 408 -94 349
-408 549 -777 496z"/>
<path d="M77780 52165 c-92 -19 -152 -41 -252 -92 -442 -227 -686 -762 -543
-1190 69 -203 218 -352 421 -419 81 -26 101 -29 224 -28 161 1 246 20 387 89
269 131 486 390 573 685 30 103 39 332 16 440 -20 95 -91 239 -151 308 -56 62
-152 133 -228 166 -118 53 -305 70 -447 41z"/>
<path d="M75259 51170 c-226 -41 -403 -121 -693 -317 -315 -212 -604 -330
-929 -379 -56 -8 -190 -19 -297 -23 -236 -10 -317 -28 -475 -106 -286 -139
-477 -389 -547 -710 -21 -97 -15 -323 10 -428 60 -245 215 -469 417 -602 111
-73 143 -88 317 -146 254 -85 470 -190 644 -315 300 -214 524 -452 689 -732
119 -200 150 -244 226 -321 272 -274 670 -370 1034 -250 496 165 783 671 671
1186 -94 432 -47 894 133 1315 228 534 207 980 -63 1339 -121 161 -287 295
-481 390 -174 84 -244 101 -445 105 -91 1 -186 -1 -211 -6z"/>
<path d="M77631 49669 c-373 -73 -708 -398 -812 -789 -30 -112 -33 -340 -6
-440 65 -242 243 -423 477 -487 94 -25 288 -23 395 6 308 82 596 345 716 655
112 290 86 596 -71 808 -87 119 -233 213 -377 243 -74 16 -251 18 -322 4z"/>
<path d="M71556 47034 c-357 -77 -677 -373 -790 -732 -91 -290 -33 -585 153
-771 72 -72 153 -122 256 -157 66 -23 102 -28 208 -32 178 -6 299 20 452 96
107 53 181 107 278 201 147 143 253 323 299 507 31 125 31 307 0 417 -68 240
-237 406 -478 467 -94 24 -274 26 -378 4z"/>
<path d="M69101 46605 c-380 -83 -702 -387 -811 -765 -31 -107 -38 -301 -15
-406 28 -131 84 -234 178 -328 141 -141 285 -198 502 -198 95 1 140 6 215 25
358 93 656 381 767 744 24 79 27 104 27 243 1 145 -1 161 -28 244 -73 223
-257 390 -483 440 -88 20 -263 20 -352 1z"/>
<path d="M73046 45639 c-91 -12 -233 -60 -326 -110 -254 -136 -454 -382 -536
-656 -34 -116 -43 -302 -20 -413 20 -98 91 -240 156 -312 67 -75 173 -144 279
-182 82 -29 93 -31 241 -31 132 0 167 4 235 23 357 103 653 398 755 752 31
107 38 301 15 406 -20 96 -79 222 -134 287 -88 105 -226 192 -352 222 -84 19
-227 26 -313 14z"/>
<path d="M79953 45127 c-62 -94 -119 -214 -150 -313 -24 -82 -27 -103 -27
-259 0 -159 2 -175 27 -250 32 -97 85 -188 149 -258 l47 -52 1 598 c0 328 -1
597 -3 597 -1 0 -21 -28 -44 -63z"/>
<path d="M78237 44909 c-195 -26 -412 -142 -571 -304 -118 -120 -223 -298
-272 -462 -35 -117 -44 -319 -20 -438 40 -197 174 -378 343 -462 119 -60 207
-77 362 -70 154 7 214 22 356 92 529 261 766 934 480 1365 -25 38 -72 92 -103
120 -65 58 -211 133 -290 149 -79 16 -208 21 -285 10z"/>
<path d="M70390 44893 c-201 -31 -387 -101 -618 -230 -244 -137 -459 -216
-716 -264 -142 -26 -402 -36 -568 -20 -518 49 -964 -256 -1096 -749 -22 -82
-25 -117 -26 -250 0 -128 3 -170 22 -243 47 -186 130 -335 262 -468 100 -101
199 -169 336 -229 331 -144 524 -272 768 -510 254 -247 389 -440 531 -760 67
-151 129 -244 225 -341 395 -396 1034 -396 1431 0 220 221 317 501 288 834
-16 183 -7 482 20 622 48 255 105 412 265 729 149 292 193 442 203 681 6 164
-9 275 -57 407 -116 319 -417 621 -737 738 -121 44 -227 60 -377 59 -72 -1
-142 -3 -156 -6z"/>
<path d="M79595 43310 c-203 -43 -372 -122 -633 -297 -428 -287 -742 -392
-1235 -413 -236 -10 -324 -28 -462 -94 -120 -57 -190 -107 -281 -196 -125
-124 -219 -282 -263 -440 -97 -347 -6 -714 238 -972 131 -138 273 -224 466
-283 556 -170 1070 -570 1351 -1053 96 -165 160 -254 231 -325 163 -161 358
-258 579 -288 99 -13 268 -7 354 14 l55 12 3 2172 2 2171 -22 6 c-51 13 -294
4 -383 -14z"/>
<path d="M72663 43170 c-404 -56 -756 -362 -880 -767 -24 -79 -27 -104 -27
-243 -1 -145 1 -161 28 -244 67 -203 218 -355 420 -423 74 -25 95 -27 236 -28
133 0 166 3 235 23 360 104 664 409 756 759 30 112 36 286 15 394 -40 199
-171 372 -346 457 -47 23 -110 48 -140 56 -74 18 -221 26 -297 16z"/>
<path d="M38275 41419 c-408 -55 -742 -317 -831 -650 -22 -85 -23 -244 -1
-328 57 -213 238 -405 467 -495 296 -116 652 -90 936 69 98 55 208 147 274
231 360 453 118 1031 -485 1160 -89 19 -269 26 -360 13z"/>
<path d="M53210 40924 c-226 -33 -355 -84 -498 -196 -104 -83 -188 -209 -228
-344 -22 -73 -25 -245 -5 -324 48 -192 189 -387 367 -505 129 -86 295 -151
446 -175 109 -18 352 -8 443 17 279 79 479 252 555 483 30 90 37 241 16 340
-21 99 -89 238 -162 329 -183 228 -532 386 -842 380 -37 -1 -78 -3 -92 -5z"/>
<path d="M50855 40539 c-157 -17 -351 -91 -480 -183 -127 -91 -270 -265 -330
-400 -90 -204 -109 -410 -64 -676 18 -101 18 -478 1 -595 -20 -136 -80 -387
-118 -497 -72 -207 -147 -355 -287 -563 -148 -220 -202 -369 -213 -585 -15
-286 86 -549 291 -756 170 -171 370 -267 615 -294 260 -29 507 46 751 228 338
250 721 399 1117 432 64 5 173 14 242 20 338 29 624 143 825 332 297 277 436
792 324 1200 -28 103 -108 262 -178 355 -127 169 -296 307 -563 459 -154 89
-217 130 -321 213 -235 186 -428 423 -557 681 -74 148 -146 254 -228 338 -120
121 -300 225 -462 265 -60 15 -235 38 -270 35 -8 0 -51 -4 -95 -9z"/>
<path d="M62485 40420 c-479 -101 -837 -490 -838 -910 0 -66 6 -129 16 -170
61 -237 264 -429 517 -489 235 -57 465 -29 696 84 356 173 574 485 574 819 0
196 -54 330 -185 462 -87 88 -168 139 -283 178 -145 50 -337 59 -497 26z"/>
<path d="M40580 40333 c-400 -31 -751 -277 -867 -605 -35 -96 -43 -271 -19
-368 125 -502 792 -733 1341 -465 235 114 388 274 467 487 39 107 49 264 24
372 -73 309 -368 537 -747 576 -56 5 -113 9 -128 8 -14 -1 -46 -3 -71 -5z"/>
<path d="M36188 40146 c-332 -59 -620 -282 -753 -583 -57 -127 -77 -219 -82
-373 -8 -231 27 -374 142 -570 190 -325 277 -557 337 -900 27 -155 31 -198 31
-375 1 -211 -7 -290 -51 -500 -23 -110 -27 -153 -26 -280 1 -128 5 -164 27
-247 97 -366 391 -648 760 -730 78 -17 116 -19 247 -15 178 5 261 23 394 85
212 100 348 231 488 472 116 198 293 407 471 557 132 110 276 202 477 303 241
122 371 210 501 339 164 163 261 327 311 527 19 76 23 116 23 269 0 153 -4
196 -23 284 -58 256 -150 431 -311 591 -98 97 -196 165 -326 225 -171 80 -301
113 -585 150 -303 39 -492 92 -730 206 -154 74 -307 176 -465 308 -142 120
-303 207 -445 241 -110 27 -307 34 -412 16z"/>
<path d="M65035 40079 c-230 -30 -451 -138 -622 -302 -160 -154 -253 -325
-283 -524 -44 -288 101 -566 363 -695 137 -68 209 -83 397 -82 147 0 176 3
265 27 318 86 597 321 714 601 91 218 79 460 -31 643 -95 158 -286 286 -483
322 -88 16 -240 21 -320 10z"/>
<path d="M54805 39039 c-200 -29 -379 -120 -512 -263 -118 -126 -173 -265
-173 -442 0 -370 305 -706 741 -815 121 -30 336 -37 452 -15 194 37 379 133
490 257 245 270 226 670 -46 956 -122 128 -266 219 -440 278 -146 49 -353 67
-512 44z"/>
<path d="M60906 38584 c-239 -47 -462 -185 -603 -372 -226 -299 -274 -676
-132 -1018 59 -141 130 -233 328 -423 253 -242 379 -402 509 -648 164 -309
238 -548 277 -893 22 -193 44 -274 109 -405 90 -180 200 -302 370 -409 170
-107 324 -149 541 -149 117 0 156 5 237 26 292 77 525 264 658 527 43 86 66
152 95 283 74 328 241 673 440 913 32 38 128 139 214 224 176 175 294 325 369
468 105 203 137 340 129 562 -6 188 -34 297 -121 475 -205 419 -508 635 -954
677 -151 15 -318 2 -542 -41 -501 -95 -869 -56 -1344 144 -124 52 -244 75
-391 74 -66 -1 -151 -7 -189 -15z"/>
<path d="M75240 38464 c-413 -80 -755 -390 -862 -781 -32 -118 -32 -330 0
-433 36 -114 86 -196 171 -280 156 -155 369 -221 611 -190 434 55 814 405 905
833 19 87 19 252 0 341 -46 220 -217 406 -440 482 -70 24 -98 27 -220 30 -77
1 -151 0 -165 -2z"/>
<path d="M40805 38345 c-232 -44 -427 -146 -578 -304 -223 -233 -278 -536
-146 -798 95 -188 293 -338 534 -403 117 -32 330 -39 462 -15 499 89 844 475
792 885 -37 299 -263 530 -608 622 -102 27 -342 34 -456 13z"/>
<path d="M65950 38300 c-224 -32 -462 -148 -622 -304 -177 -172 -273 -372
-285 -591 -17 -325 183 -591 517 -685 106 -30 296 -37 417 -16 468 81 845 460
870 874 20 338 -189 614 -531 702 -93 23 -271 33 -366 20z"/>
<path d="M72750 38169 c-210 -37 -419 -148 -575 -304 -222 -221 -336 -515
-305 -786 18 -162 77 -286 190 -400 61 -62 93 -85 170 -122 128 -63 227 -82
380 -74 266 14 509 130 703 337 119 125 217 298 258 455 28 107 31 310 5 405
-63 232 -247 414 -481 476 -72 19 -269 27 -345 13z"/>
<path d="M54345 37089 c-227 -33 -442 -157 -561 -325 -221 -309 -137 -722 200
-990 102 -82 269 -165 401 -201 90 -24 117 -27 280 -27 158 0 190 2 265 23
357 97 589 365 590 682 1 460 -475 855 -1023 848 -51 -1 -119 -5 -152 -10z"/>
<path d="M76571 36975 c-114 -21 -197 -51 -304 -108 -284 -153 -489 -416 -553
-710 -20 -94 -20 -282 1 -362 68 -262 280 -453 548 -495 101 -17 269 -8 372
19 173 46 375 169 507 309 345 367 383 869 88 1163 -84 83 -191 145 -305 174
-85 23 -263 28 -354 10z"/>
<path d="M39066 36580 c-345 -55 -628 -252 -761 -531 -140 -295 -46 -638 230
-834 81 -58 211 -120 310 -147 68 -18 107 -22 265 -22 164 -1 195 2 274 23
360 95 625 333 702 631 21 79 23 234 5 310 -65 266 -291 473 -603 551 -95 23
-325 34 -422 19z"/>
<path d="M27246 36450 c-236 -38 -461 -155 -626 -327 -174 -181 -254 -351
-267 -569 -24 -416 296 -718 757 -716 305 2 568 117 786 343 88 92 124 146
179 262 55 117 75 209 75 339 0 194 -64 343 -201 472 -140 132 -302 194 -519
201 -69 2 -152 0 -184 -5z"/>
<path d="M73900 36383 c-197 -31 -333 -75 -560 -183 -275 -130 -460 -189 -705
-225 -142 -22 -414 -22 -555 -2 -179 27 -223 29 -327 17 -137 -15 -229 -41
-348 -100 -318 -157 -524 -460 -554 -813 -20 -242 34 -458 164 -652 106 -160
225 -261 432 -367 275 -140 431 -253 643 -467 271 -273 402 -472 546 -835 98
-247 182 -369 337 -492 355 -281 832 -297 1212 -41 78 53 200 175 255 256 133
197 186 406 173 684 -11 242 30 518 113 767 54 163 119 301 218 464 191 316
263 522 273 783 6 159 -5 252 -44 372 -58 179 -158 337 -313 492 -188 189
-380 294 -609 334 -76 14 -287 18 -351 8z"/>
<path d="M29760 36149 c-348 -40 -686 -272 -835 -574 -62 -125 -87 -225 -87
-355 -2 -198 54 -334 191 -471 99 -98 196 -153 336 -191 123 -32 345 -30 477
5 207 55 376 152 524 301 492 496 287 1206 -371 1285 -100 12 -127 12 -235 0z"/>
<path d="M52003 36136 c-217 -42 -422 -161 -527 -310 -91 -127 -127 -237 -128
-386 0 -217 80 -391 260 -561 132 -125 280 -205 471 -256 84 -23 117 -26 266
-27 202 -1 295 18 442 89 265 129 413 349 413 616 0 210 -87 400 -257 559
-125 119 -294 211 -468 256 -124 32 -356 42 -472 20z"/>
<path d="M64746 36065 c-254 -53 -495 -194 -644 -379 -367 -452 -227 -1026
289 -1184 386 -118 873 49 1129 389 122 163 180 326 180 508 0 197 -52 324
-190 462 -95 96 -190 152 -320 189 -98 28 -340 37 -444 15z"/>
<path d="M46568 34805 c-329 -54 -607 -245 -739 -508 -51 -100 -71 -189 -71
-307 0 -111 19 -194 67 -291 92 -181 275 -323 511 -395 83 -26 101 -28 284
-28 174 -1 204 2 284 23 299 79 532 257 646 495 54 114 74 215 67 335 -7 106
-21 162 -68 256 -92 187 -297 340 -537 401 -124 32 -317 40 -444 19z"/>
<path d="M25750 34585 c-8 -2 -49 -9 -90 -15 -315 -51 -612 -287 -740 -588
-65 -153 -75 -210 -74 -412 0 -173 2 -191 28 -274 57 -186 155 -340 302 -472
332 -298 471 -465 633 -761 149 -271 222 -503 275 -871 38 -266 111 -429 268
-596 398 -426 1074 -428 1473 -4 142 151 215 300 267 543 73 340 202 630 395
886 41 55 146 173 232 263 194 201 273 305 356 471 75 150 109 262 125 408 35
324 -103 694 -358 959 -185 192 -408 298 -691 329 -181 20 -352 3 -674 -65
-302 -64 -628 -57 -929 20 -90 22 -160 46 -352 119 -39 14 -102 33 -140 41
-67 14 -273 27 -306 19z"/>
<path d="M76000 34524 c-395 -84 -740 -425 -821 -809 -23 -108 -24 -253 -4
-350 47 -223 234 -424 454 -489 141 -41 319 -41 476 1 95 25 272 114 361 181
440 333 558 919 254 1264 -80 92 -204 165 -337 199 -92 23 -283 25 -383 3z"/>
<path d="M30715 34390 c-114 -15 -222 -47 -330 -99 -141 -67 -215 -119 -320
-225 -511 -514 -274 -1244 419 -1292 167 -12 352 24 513 101 279 132 476 349
565 620 28 86 36 287 14 379 -26 110 -89 219 -177 308 -64 64 -93 84 -180 126
-57 28 -135 57 -174 66 -92 19 -242 27 -330 16z"/>
<path d="M48860 33719 c-170 -20 -387 -106 -520 -207 -139 -105 -245 -246
-297 -394 -38 -106 -44 -273 -14 -382 54 -196 182 -348 381 -450 398 -206 941
-117 1242 203 85 90 136 169 178 276 33 87 35 95 35 225 0 112 -4 147 -22 205
-33 102 -88 190 -174 275 -198 196 -488 286 -809 249z"/>
<path d="M44507 33534 c-208 -38 -392 -136 -542 -290 -137 -140 -231 -318
-270 -513 -14 -65 -16 -116 -12 -230 7 -220 41 -324 188 -571 118 -200 210
-435 262 -670 82 -367 86 -651 14 -1000 -41 -203 -44 -393 -8 -535 45 -176
141 -346 267 -472 121 -121 265 -206 443 -260 80 -25 99 -27 271 -27 173 0
191 2 273 27 115 35 202 76 288 133 142 94 232 195 343 382 174 293 421 552
696 731 47 30 148 86 225 124 190 95 304 162 410 244 227 176 375 392 437 639
30 119 33 403 5 534 -52 248 -144 432 -291 588 -90 94 -178 160 -296 221 -185
96 -353 141 -665 180 -458 58 -813 211 -1153 498 -134 113 -242 180 -358 222
-163 59 -357 76 -527 45z"/>
<path d="M29640 32144 c-294 -42 -499 -143 -686 -336 -391 -403 -340 -972 106
-1198 345 -174 837 -76 1147 229 92 91 152 176 207 292 55 118 76 211 76 336
0 193 -55 329 -185 458 -44 44 -106 95 -137 114 -141 82 -369 127 -528 105z"/>
<path d="M65305 32070 c-354 -56 -667 -278 -805 -572 -52 -111 -70 -191 -70
-313 0 -125 19 -206 71 -305 134 -258 420 -402 769 -387 282 12 543 126 735
321 179 181 265 388 252 611 -11 179 -60 288 -192 421 -76 76 -105 97 -185
137 -132 65 -226 87 -385 92 -71 2 -157 0 -190 -5z"/>
<path d="M36616 31900 c-227 -36 -457 -153 -613 -312 -97 -98 -146 -166 -198
-273 -65 -134 -79 -197 -79 -350 0 -116 3 -139 28 -210 65 -188 197 -327 385
-406 183 -76 459 -80 671 -9 84 28 201 87 281 141 83 55 209 177 265 255 59
83 128 233 148 321 20 92 21 260 1 338 -33 130 -110 249 -220 344 -60 51 -205
123 -295 146 -77 19 -290 28 -374 15z"/>
<path d="M49127 31734 c-389 -70 -703 -344 -773 -674 -74 -348 149 -687 531
-809 128 -42 236 -55 384 -48 276 13 525 119 707 301 444 446 217 1095 -428
1226 -115 24 -303 26 -421 4z"/>
<path d="M39165 31604 c-324 -43 -577 -179 -760 -407 -129 -161 -196 -340
-197 -527 -1 -124 16 -202 69 -310 52 -108 176 -230 293 -288 368 -181 844
-82 1166 242 314 317 362 744 117 1043 -78 95 -230 185 -374 222 -74 19 -253
33 -314 25z"/>
<path d="M67735 31450 c-272 -43 -534 -188 -691 -385 -198 -246 -246 -530
-132 -778 84 -183 246 -314 473 -383 84 -26 103 -28 265 -28 157 0 185 3 273
27 374 100 670 383 748 713 17 73 15 238 -5 313 -22 84 -85 203 -142 269 -89
102 -245 193 -399 232 -92 24 -296 34 -390 20z"/>
<path d="M57140 30819 c-93 -14 -233 -63 -320 -112 -103 -58 -233 -188 -283
-284 -229 -439 80 -971 650 -1119 144 -38 350 -44 490 -15 292 60 521 240 603
473 151 429 -165 897 -698 1035 -111 28 -330 39 -442 22z"/>
<path d="M54860 30444 c-14 -2 -52 -9 -85 -15 -304 -52 -575 -258 -715 -542
-62 -125 -86 -209 -102 -351 -11 -97 -10 -126 10 -285 30 -243 36 -374 23
-526 -39 -451 -163 -814 -403 -1176 -172 -261 -217 -384 -225 -619 -4 -109 -1
-153 15 -230 42 -203 130 -369 272 -511 155 -157 311 -240 529 -284 125 -26
345 -17 461 18 158 48 191 66 480 267 150 104 338 197 525 259 226 75 315 90
705 121 667 53 1074 391 1190 989 24 120 29 324 11 433 -56 339 -290 646 -661
865 -47 28 -128 75 -180 106 -294 171 -570 444 -741 734 -27 47 -72 128 -98
182 -175 346 -491 552 -871 566 -63 2 -126 2 -140 -1z"/>
<path d="M63520 30414 c-414 -79 -723 -369 -822 -771 -17 -70 -22 -118 -22
-233 0 -186 22 -277 105 -445 60 -122 77 -145 251 -345 210 -241 353 -498 469
-843 71 -212 109 -460 109 -714 0 -249 29 -386 118 -556 100 -190 251 -336
447 -432 167 -82 245 -99 445 -100 194 0 276 17 427 90 125 59 204 114 289
200 121 122 190 241 264 450 82 235 216 478 367 665 89 110 270 281 414 393
221 170 395 369 489 557 153 305 147 668 -15 1016 -121 259 -281 427 -520 544
-207 102 -396 137 -683 126 -489 -18 -517 -19 -653 -1 -268 34 -525 116 -750
241 -240 132 -318 155 -544 159 -88 2 -171 1 -185 -1z"/>
<path d="M35055 30026 c-334 -52 -633 -285 -765 -594 -64 -151 -75 -210 -74
-407 0 -209 14 -275 88 -429 61 -129 130 -220 238 -317 288 -260 451 -446 579
-663 185 -312 279 -581 328 -942 26 -183 50 -273 104 -383 308 -632 1160 -761
1642 -249 142 151 215 300 267 543 73 340 202 630 395 886 41 55 146 173 232
263 187 194 270 302 349 456 66 128 92 197 117 315 22 99 24 292 6 395 -66
368 -327 733 -636 887 -258 130 -571 155 -943 77 -315 -67 -484 -83 -700 -66
-244 20 -390 55 -716 176 -165 61 -338 78 -511 52z"/>
<path d="M47363 29965 c-306 -55 -584 -245 -706 -482 -68 -131 -81 -187 -81
-328 0 -108 3 -128 30 -206 188 -531 975 -694 1494 -309 177 132 290 305 326
500 17 95 17 135 -1 233 -52 295 -320 530 -674 592 -101 18 -290 18 -388 0z"/>
<path d="M40076 29839 c-256 -35 -491 -158 -669 -350 -92 -99 -160 -212 -206
-341 -34 -100 -36 -108 -36 -243 1 -126 3 -147 27 -213 39 -107 83 -177 166
-259 59 -60 91 -82 175 -122 256 -124 552 -119 834 14 278 130 477 349 565
620 25 78 35 271 18 357 -48 248 -255 454 -521 518 -100 24 -258 32 -353 19z"/>
<path d="M68446 29579 c-219 -32 -454 -149 -610 -303 -116 -115 -204 -261
-243 -406 -24 -89 -24 -273 1 -355 108 -363 508 -574 946 -501 243 41 455 151
616 318 363 378 325 895 -84 1138 -172 102 -402 142 -626 109z"/>
<path d="M58781 28939 c-79 -14 -228 -66 -291 -101 -367 -206 -481 -614 -270
-969 50 -84 150 -193 240 -261 84 -64 263 -152 363 -177 374 -97 743 -12 963
220 121 129 174 250 182 420 5 129 -12 222 -64 330 -121 252 -361 438 -671
520 -90 24 -360 35 -452 18z"/>
<path d="M20275 27821 c-224 -37 -446 -158 -607 -329 -84 -89 -137 -168 -194
-285 -70 -147 -88 -225 -88 -402 0 -136 2 -157 27 -230 38 -115 91 -197 178
-279 403 -379 1135 -148 1414 447 64 136 88 245 88 392 -1 213 -58 359 -193
496 -81 81 -189 144 -300 175 -65 18 -255 26 -325 15z"/>
<path d="M39010 27595 c-8 -2 -49 -9 -90 -15 -401 -65 -768 -401 -844 -772
-75 -362 119 -686 475 -796 394 -121 891 58 1144 413 60 84 129 233 149 322
20 91 20 248 0 333 -27 116 -79 205 -174 300 -97 98 -197 155 -335 190 -73 19
-284 35 -325 25z"/>
<path d="M67033 27485 c-220 -40 -427 -148 -584 -304 -316 -314 -346 -754 -70
-1031 90 -91 182 -148 308 -190 241 -80 521 -58 769 59 229 109 388 258 489
460 52 105 76 206 77 326 1 188 -55 328 -187 461 -115 116 -251 187 -423 220
-90 17 -282 17 -379 -1z"/>
<path d="M17746 27394 c-248 -54 -507 -232 -655 -452 -60 -89 -127 -233 -152
-327 -29 -108 -32 -319 -6 -415 68 -250 240 -419 488 -482 109 -27 313 -22
429 11 227 65 463 239 600 441 62 92 126 234 152 336 28 116 30 307 4 403 -68
251 -257 434 -501 486 -88 19 -269 18 -359 -1z"/>
<path d="M58306 26985 c-270 -56 -486 -211 -586 -419 -144 -303 -29 -672 282
-906 253 -191 608 -265 918 -190 176 42 364 159 458 284 284 376 114 889 -373
1131 -162 81 -270 106 -470 111 -112 2 -180 -1 -229 -11z"/>
<path d="M30330 26519 c-392 -60 -753 -390 -862 -786 -17 -63 -21 -106 -21
-228 -1 -136 2 -157 26 -230 38 -114 90 -197 179 -280 83 -78 177 -131 288
-161 95 -26 308 -24 412 4 376 102 679 403 775 771 34 129 36 308 4 425 -49
182 -172 337 -331 414 -47 23 -112 49 -145 57 -76 20 -241 27 -325 14z"/>
<path d="M21641 26395 c-244 -55 -457 -188 -612 -383 -158 -197 -229 -392
-229 -625 0 -211 56 -354 195 -492 137 -138 281 -195 491 -195 160 0 282 29
424 100 276 138 487 392 572 685 19 68 23 103 23 235 -1 144 -3 161 -28 235
-72 205 -218 352 -417 420 -74 25 -102 29 -220 31 -92 3 -156 -1 -199 -11z"/>
<path d="M27865 26104 c-234 -48 -398 -132 -560 -285 -104 -99 -166 -184 -230
-314 -143 -290 -137 -590 16 -820 57 -85 117 -141 209 -195 107 -63 184 -82
345 -87 125 -4 150 -2 237 21 195 50 358 146 505 299 102 106 145 169 208 299
68 141 87 227 88 388 1 148 -11 213 -62 324 -82 179 -261 319 -459 361 -67 14
-246 19 -297 9z"/>
<path d="M55986 26034 c-400 -79 -665 -382 -642 -735 18 -280 207 -538 503
-688 169 -84 301 -115 503 -115 190 0 287 21 435 94 265 129 414 351 415 618
1 320 -246 636 -603 770 -141 53 -249 72 -407 71 -74 -1 -166 -7 -204 -15z"/>
<path d="M19067 25678 c-191 -19 -398 -92 -635 -221 -170 -93 -284 -144 -432
-192 -247 -80 -494 -113 -725 -99 -248 16 -418 11 -515 -14 -169 -45 -343
-144 -465 -267 -307 -306 -382 -783 -185 -1175 100 -199 269 -361 476 -456
398 -182 571 -299 829 -558 227 -228 366 -437 506 -758 127 -295 361 -499 675
-590 70 -20 100 -23 264 -22 172 0 191 2 273 27 93 29 223 90 297 140 66 45
196 173 245 242 59 83 120 208 152 312 l27 88 1 400 c1 370 2 408 23 510 54
273 100 399 257 710 175 347 225 516 225 770 0 241 -64 438 -208 638 -65 90
-229 253 -322 319 -153 108 -339 179 -521 198 -112 11 -117 11 -242 -2z"/>
<path d="M31722 25099 c-300 -53 -596 -275 -745 -558 -86 -163 -117 -283 -117
-455 0 -210 57 -354 195 -491 138 -139 281 -195 492 -195 233 0 428 71 625
229 172 137 299 325 365 538 24 80 27 103 27 248 1 154 0 163 -30 246 -73 204
-216 346 -419 415 -68 23 -100 27 -210 30 -71 2 -154 -1 -183 -7z"/>
<path d="M29010 24359 c-181 -39 -328 -98 -565 -228 -220 -121 -446 -199 -710
-247 -82 -15 -142 -18 -325 -15 -470 7 -489 6 -585 -18 -52 -12 -136 -44 -200
-75 -584 -287 -747 -1034 -338 -1546 64 -79 176 -177 258 -225 24 -15 107 -55
184 -90 292 -132 510 -283 736 -510 236 -236 374 -441 516 -767 153 -353 472
-587 842 -617 238 -19 455 34 644 158 314 207 486 563 453 936 -14 151 -11
405 6 537 34 263 116 511 253 768 180 336 241 537 241 801 0 325 -112 573
-370 822 -120 116 -207 178 -343 242 -151 72 -223 87 -427 91 -147 3 -190 0
-270 -17z"/>
<path d="M21220 23926 c-216 -48 -449 -189 -587 -356 -158 -191 -238 -385
-250 -605 -16 -296 117 -540 359 -660 126 -62 210 -78 368 -72 148 6 253 33
389 101 288 145 510 425 577 729 22 96 22 281 1 369 -59 244 -240 426 -485
489 -88 22 -282 25 -372 5z"/>
<path d="M31280 22624 c-485 -104 -863 -575 -837 -1044 8 -127 24 -189 77
-298 60 -120 155 -214 280 -276 128 -63 211 -79 370 -73 189 8 329 53 493 160
268 174 451 459 487 756 46 373 -156 684 -498 772 -91 23 -273 25 -372 3z"/>
<path d="M12372 18610 c-413 -58 -770 -380 -884 -798 -28 -104 -30 -317 -4
-412 33 -122 83 -207 176 -301 93 -93 179 -144 300 -176 96 -26 318 -23 423 5
407 111 734 478 788 887 48 365 -148 682 -479 774 -85 23 -232 33 -320 21z"/>
<path d="M9830 18180 c-383 -82 -707 -396 -812 -788 -27 -103 -29 -307 -4
-402 67 -248 249 -428 494 -486 98 -24 275 -22 382 4 266 65 502 235 658 475
56 87 95 173 129 284 23 77 26 106 27 233 1 155 -15 233 -69 340 -140 277
-463 414 -805 340z"/>
<path d="M13750 17189 c-86 -15 -241 -71 -325 -120 -265 -151 -471 -428 -529
-711 -20 -99 -20 -259 0 -351 50 -227 215 -410 441 -488 88 -30 221 -42 333
-29 347 41 667 278 830 616 61 126 81 210 87 360 8 195 -23 315 -116 452 -87
129 -255 237 -414 267 -86 16 -221 18 -307 4z"/>
<path d="M21575 16543 c-291 -62 -585 -297 -723 -576 -76 -155 -102 -262 -102
-422 0 -140 19 -227 72 -334 78 -157 223 -278 398 -333 65 -20 96 -23 225 -23
127 0 162 4 230 23 301 87 562 310 695 595 60 128 81 214 87 358 7 155 -10
245 -69 368 -32 68 -57 101 -122 166 -142 141 -282 196 -500 194 -67 0 -152
-7 -191 -16z"/>
<path d="M11041 16450 c-161 -33 -277 -79 -546 -215 -279 -141 -428 -198 -630
-240 -181 -39 -309 -49 -500 -39 -290 14 -416 10 -525 -19 -364 -95 -641 -377
-732 -744 -33 -132 -30 -351 5 -484 48 -181 134 -334 260 -461 99 -100 184
-155 372 -241 298 -137 508 -281 730 -501 236 -234 373 -432 505 -731 112
-252 214 -380 413 -514 220 -149 541 -196 819 -120 262 71 505 274 628 524 91
185 119 344 99 577 -14 173 -7 419 16 558 32 195 105 430 180 580 18 36 70
139 117 230 119 233 168 390 188 602 17 180 -16 382 -90 545 -73 161 -247 369
-414 495 -95 72 -273 159 -381 188 -118 32 -384 37 -514 10z"/>
<path d="M19175 16141 c-155 -26 -343 -107 -466 -200 -145 -110 -287 -291
-354 -450 -49 -117 -66 -195 -72 -331 -4 -105 -2 -139 16 -212 59 -248 235
-428 481 -494 99 -27 300 -25 410 4 98 26 241 92 332 153 138 93 292 268 365
414 82 162 108 287 101 471 -9 203 -60 326 -194 459 -77 78 -191 143 -299 170
-71 19 -249 27 -320 16z"/>
<path d="M23055 15140 c-402 -63 -757 -390 -867 -798 -15 -58 -21 -110 -21
-207 -2 -153 12 -218 75 -345 77 -158 237 -287 418 -336 96 -26 309 -24 412 4
358 98 653 376 761 717 119 379 -4 734 -309 892 -43 23 -108 49 -143 58 -77
20 -244 27 -326 15z"/>
<path d="M13310 14715 c-188 -38 -364 -132 -513 -274 -106 -102 -168 -185
-232 -316 -64 -130 -94 -241 -101 -374 -10 -169 28 -313 117 -446 81 -121 186
-200 334 -251 115 -39 305 -46 438 -15 185 43 349 134 494 274 106 103 175
197 238 329 68 141 87 227 88 388 1 148 -11 213 -62 324 -81 178 -261 320
-456 361 -85 18 -257 18 -345 0z"/>
<path d="M20370 14405 c-191 -33 -299 -74 -610 -232 -311 -158 -506 -223 -769
-258 -128 -18 -353 -19 -508 -4 -186 18 -369 -12 -531 -86 -291 -135 -499
-398 -564 -715 -16 -78 -19 -121 -15 -240 6 -175 26 -262 96 -405 58 -118 123
-206 217 -295 88 -82 160 -130 282 -186 361 -167 536 -282 770 -508 245 -238
415 -485 546 -796 100 -237 294 -438 522 -541 38 -17 112 -43 164 -57 81 -21
117 -25 245 -25 162 0 238 12 361 58 307 116 541 375 625 695 24 92 27 167 19
570 -8 402 58 666 280 1105 168 334 216 484 227 715 10 205 -25 370 -118 550
-172 335 -512 595 -858 655 -100 18 -278 18 -381 0z"/>
<path d="M22620 12669 c-30 -5 -98 -24 -152 -43 -324 -111 -592 -394 -688
-726 -31 -106 -39 -310 -16 -412 78 -350 399 -564 777 -518 412 50 782 378
895 795 15 55 19 104 19 225 0 148 -2 159 -31 241 -38 106 -107 212 -182 279
-62 56 -186 122 -272 146 -68 18 -276 26 -350 13z"/>
<path d="M5280 9315 c-189 -38 -370 -137 -525 -290 -115 -113 -168 -186 -231
-320 -69 -145 -87 -225 -88 -390 -1 -159 15 -232 82 -360 43 -83 150 -194 234
-243 107 -64 188 -85 336 -90 184 -6 304 19 457 96 107 53 181 107 278 201
147 143 253 323 299 507 28 115 30 307 4 404 -67 248 -262 434 -508 484 -92
19 -247 19 -338 1z"/>
<path d="M2879 8910 c-264 -33 -533 -195 -711 -429 -69 -91 -153 -267 -180
-376 -28 -115 -30 -298 -5 -395 31 -120 92 -227 176 -311 86 -85 150 -125 266
-165 74 -26 92 -28 230 -28 123 0 164 4 230 22 94 26 239 94 326 153 81 55
198 166 260 248 65 85 153 264 180 366 30 108 32 328 5 425 -63 230 -246 412
-468 469 -90 23 -221 32 -309 21z"/>
<path d="M14192 8889 c-118 -14 -190 -36 -317 -99 -242 -119 -422 -308 -526
-550 -58 -137 -74 -215 -74 -370 0 -144 18 -227 70 -330 121 -238 367 -372
659 -357 139 7 243 33 371 95 436 212 686 682 589 1109 -76 337 -397 546 -772
502z"/>
<path d="M11665 8466 c-397 -77 -729 -392 -837 -794 -28 -103 -30 -308 -5
-402 65 -243 245 -423 487 -487 102 -27 289 -22 411 10 368 97 669 399 771
775 28 104 30 317 4 412 -33 123 -83 207 -176 300 -92 92 -178 144 -295 175
-81 23 -271 28 -360 11z"/>
<path d="M6769 7910 c-442 -54 -839 -435 -909 -874 -20 -123 -9 -284 27 -387
59 -171 168 -296 328 -375 206 -102 477 -97 714 12 283 131 510 389 597 681
36 119 44 315 20 427 -21 91 -79 212 -136 280 -147 177 -391 267 -641 236z"/>
<path d="M15553 7466 c-387 -74 -722 -382 -833 -766 -31 -107 -39 -310 -15
-414 50 -226 210 -407 425 -482 485 -169 1097 202 1244 756 26 95 32 296 12
390 -49 235 -220 422 -451 496 -99 32 -272 41 -382 20z"/>
<path d="M4067 7175 c-199 -32 -298 -70 -628 -237 -246 -124 -350 -166 -534
-212 -182 -45 -303 -59 -505 -56 -462 8 -509 6 -600 -18 -695 -186 -977 -1029
-535 -1601 105 -137 235 -233 441 -325 314 -141 530 -292 775 -542 209 -215
341 -410 474 -703 85 -189 130 -256 245 -371 151 -149 325 -240 532 -276 119
-21 310 -14 420 15 288 75 524 264 653 521 104 209 118 310 101 720 -10 220 0
341 41 535 43 207 96 349 229 610 167 328 214 468 233 688 30 346 -84 644
-349 907 -170 170 -346 275 -545 326 -127 32 -318 40 -448 19z"/>
<path d="M12885 6735 c-204 -37 -376 -105 -615 -240 -163 -92 -414 -185 -605
-224 -182 -37 -286 -44 -490 -35 -293 13 -407 9 -508 -15 -178 -42 -330 -126
-465 -255 -142 -137 -236 -298 -284 -493 -32 -128 -32 -351 1 -478 75 -294
276 -541 541 -667 439 -208 583 -303 832 -551 202 -202 333 -383 450 -627 39
-80 88 -182 110 -227 126 -258 396 -460 703 -524 77 -17 303 -17 380 0 316 66
576 264 715 546 83 168 118 357 100 545 -12 126 -12 373 0 485 34 303 117 550
297 885 77 143 132 282 169 425 27 102 29 124 29 300 0 168 -3 200 -23 275
-49 181 -151 355 -295 506 -195 205 -411 328 -644 369 -103 18 -301 18 -398 0z"/>
<path d="M6320 5439 c-93 -14 -246 -69 -335 -120 -350 -200 -574 -582 -551
-939 12 -196 67 -322 196 -450 128 -129 254 -184 450 -196 151 -10 320 26 465
99 280 140 496 403 577 705 15 58 21 110 21 207 2 153 -13 218 -75 345 -78
160 -241 289 -423 335 -77 20 -241 27 -325 14z"/>
<path d="M15147 5000 c-252 -45 -505 -204 -668 -419 -65 -87 -154 -266 -181
-366 -29 -108 -31 -329 -4 -425 60 -217 231 -397 438 -461 197 -62 446 -35
653 69 107 53 182 107 278 201 208 203 320 450 321 711 0 144 -14 211 -70 328
-79 165 -213 282 -389 338 -65 21 -104 27 -205 30 -69 1 -147 -1 -173 -6z"/>
<path d="M7260 2024 c-377 -80 -709 -396 -810 -769 -30 -111 -37 -275 -16
-385 31 -166 137 -332 268 -421 137 -93 257 -124 452 -116 252 10 473 111 667
306 205 204 312 449 311 711 -1 212 -58 357 -197 496 -135 137 -284 194 -500
193 -60 0 -139 -7 -175 -15z"/>
<path d="M4847 1619 c-97 -13 -243 -64 -334 -115 -277 -158 -458 -392 -539
-694 -25 -91 -25 -311 -1 -400 38 -141 123 -269 240 -361 l49 -39 399 0 c449
0 405 -7 539 83 156 106 319 303 390 474 55 133 72 214 73 358 1 153 -13 219
-75 345 -78 160 -241 289 -423 335 -77 20 -231 26 -318 14z"/>
<path d="M8745 620 c-154 -21 -311 -85 -449 -180 -127 -88 -280 -259 -345
-388 l-21 -42 810 0 810 0 -6 43 c-12 75 -53 191 -91 256 -80 134 -247 255
-407 296 -75 19 -223 26 -301 15z"/>
</g>
</svg>
