<?xml version="1.0" standalone="no"?>
<!DOCTYPE svg PUBLIC "-//W3C//DTD SVG 20010904//EN"
 "http://www.w3.org/TR/2001/REC-SVG-20010904/DTD/svg10.dtd">
<svg version="1.0" xmlns="http://www.w3.org/2000/svg"
 width="450.000000pt" height="450.000000pt" viewBox="0 0 450.000000 450.000000"
 preserveAspectRatio="xMidYMid meet">

<g transform="translate(0.000000,450.000000) scale(0.100000,-0.100000)"
fill="#000000" stroke="none">
<path d="M1582 3890 c0 -14 2 -19 5 -12 2 6 2 18 0 25 -3 6 -5 1 -5 -13z"/>
<path d="M3111 3894 c0 -11 3 -14 6 -6 3 7 2 16 -1 19 -3 4 -6 -2 -5 -13z"/>
<path d="M1430 3856 c0 -8 5 -18 10 -21 6 -3 10 1 10 9 0 8 -4 18 -10 21 -5 3
-10 -1 -10 -9z"/>
<path d="M3102 3858 c-17 -17 -15 -73 4 -89 14 -11 19 -10 35 10 23 28 24 54
3 75 -19 19 -26 20 -42 4z"/>
<path d="M3235 3860 c-3 -5 -1 -10 4 -10 6 0 11 5 11 10 0 6 -2 10 -4 10 -3 0
-8 -4 -11 -10z"/>
<path d="M1552 3838 c-20 -20 -15 -75 10 -92 25 -18 43 -8 52 29 13 53 -29 96
-62 63z"/>
<path d="M1037 3833 c-10 -9 -9 -43 1 -43 12 0 32 23 32 37 0 14 -22 18 -33 6z"/>
<path d="M3001 3824 c0 -11 3 -14 6 -6 3 7 2 16 -1 19 -3 4 -6 -2 -5 -13z"/>
<path d="M977 3823 c-4 -3 -7 -15 -7 -25 0 -22 26 -24 34 -2 10 25 -10 45 -27
27z"/>
<path d="M3192 3818 c-17 -17 -15 -75 3 -82 23 -9 57 30 53 62 -3 30 -35 41
-56 20z"/>
<path d="M1448 3809 c-28 -15 -23 -64 8 -88 35 -28 56 -12 52 37 -4 41 -33 66
-60 51z"/>
<path d="M1706 3811 c-4 -7 -5 -15 -2 -18 9 -9 19 4 14 18 -4 11 -6 11 -12 0z"/>
<path d="M1082 3798 c-16 -16 -15 -38 2 -38 18 0 39 27 31 40 -8 13 -18 13
-33 -2z"/>
<path d="M2721 3784 c0 -11 3 -14 6 -6 3 7 2 16 -1 19 -3 4 -6 -2 -5 -13z"/>
<path d="M2988 3775 c-14 -32 3 -75 31 -75 34 0 43 56 13 83 -25 23 -30 21
-44 -8z"/>
<path d="M3514 3777 c-7 -20 1 -47 15 -47 17 0 22 33 7 49 -14 13 -16 13 -22
-2z"/>
<path d="M982 3761 c-18 -3 -32 -10 -31 -16 1 -5 19 -25 40 -43 48 -41 71 -37
63 10 -11 64 -7 61 -72 49z"/>
<path d="M1676 3755 c-21 -22 -21 -84 0 -92 30 -11 49 11 49 58 0 49 -20 63
-49 34z"/>
<path d="M3567 3763 c-4 -3 -7 -15 -7 -25 0 -28 34 -19 38 10 3 21 -16 31 -31
15z"/>
<path d="M2590 3751 c0 -5 5 -13 10 -16 6 -3 10 -2 10 4 0 5 -4 13 -10 16 -5
3 -10 2 -10 -4z"/>
<path d="M3286 3743 c-6 -14 -5 -15 5 -6 7 7 10 15 7 18 -3 3 -9 -2 -12 -12z"/>
<path d="M2689 3723 c-13 -36 6 -75 35 -71 23 3 32 34 22 74 -9 34 -44 32 -57
-3z"/>
<path d="M3464 3736 c-7 -19 1 -46 15 -46 15 0 20 39 5 51 -11 9 -15 8 -20 -5z"/>
<path d="M1073 3715 c-3 -9 -2 -19 1 -23 8 -8 38 10 44 26 6 18 -38 14 -45 -3z"/>
<path d="M1376 3715 c4 -8 8 -15 10 -15 2 0 4 7 4 15 0 8 -4 15 -10 15 -5 0
-7 -7 -4 -15z"/>
<path d="M1928 3724 c-5 -4 -8 -19 -8 -33 1 -23 2 -24 11 -8 11 19 9 53 -3 41z"/>
<path d="M2603 3713 c-20 -7 -15 -58 7 -78 10 -9 26 -15 35 -12 20 8 20 61 -1
81 -16 17 -21 18 -41 9z"/>
<path d="M2831 3704 c0 -11 3 -14 6 -6 3 7 2 16 -1 19 -3 4 -6 -2 -5 -13z"/>
<path d="M3081 3700 c-13 -11 -31 -20 -40 -20 -24 0 -41 -20 -41 -46 0 -29 7
-33 67 -40 26 -3 60 -15 75 -25 61 -43 105 -6 63 52 -14 18 -25 40 -25 49 0
22 -32 50 -56 50 -10 -1 -30 -10 -43 -20z"/>
<path d="M3233 3708 c-27 -36 -24 -78 6 -78 21 0 61 41 61 62 0 27 -50 38 -67
16z"/>
<path d="M812 3702 c-9 -6 -10 -26 -6 -71 8 -73 25 -96 63 -85 14 4 37 6 50 5
13 0 30 4 37 10 25 21 15 44 -31 68 -25 13 -45 27 -45 31 0 9 -39 50 -48 50
-4 0 -13 -4 -20 -8z"/>
<path d="M1392 3684 c-17 -11 -21 -21 -16 -37 11 -36 36 -58 63 -55 22 3 26 8
24 36 -1 30 -26 72 -42 72 -4 0 -17 -7 -29 -16z"/>
<path d="M3488 3682 c-26 -16 -38 -41 -20 -43 4 -1 19 -3 34 -4 15 -2 37 -9
49 -15 35 -19 46 2 23 45 -21 39 -42 43 -86 17z"/>
<path d="M3593 3685 c-3 -9 -3 -18 0 -22 10 -10 37 6 37 22 0 20 -29 20 -37 0z"/>
<path d="M1544 3680 c-11 -4 -27 -23 -35 -42 -7 -18 -24 -48 -36 -67 -29 -42
-29 -47 2 -67 23 -15 27 -15 69 10 25 15 60 26 80 26 54 0 86 16 86 43 0 26
-28 57 -50 57 -8 0 -23 8 -34 19 -27 24 -56 32 -82 21z"/>
<path d="M2807 3662 c-30 -33 -17 -87 19 -80 24 4 42 53 28 75 -15 25 -28 26
-47 5z"/>
<path d="M2087 3664 c-4 -4 -7 -14 -7 -23 0 -11 3 -12 11 -4 6 6 10 16 7 23
-2 6 -7 8 -11 4z"/>
<path d="M735 3648 c-26 -15 -34 -28 -28 -45 3 -7 0 -13 -6 -13 -6 0 -11 -5
-11 -11 0 -8 4 -8 15 1 8 6 19 9 25 5 13 -8 60 32 60 51 0 6 -7 15 -16 18 -19
7 -15 8 -39 -6z"/>
<path d="M1126 3641 c-12 -13 -14 -21 -6 -26 16 -10 40 2 40 19 0 24 -16 27
-34 7z"/>
<path d="M1906 3638 c-27 -38 -15 -118 18 -118 23 0 56 45 56 77 0 29 -25 63
-48 63 -6 0 -18 -10 -26 -22z"/>
<path d="M2540 3635 c0 -8 4 -15 10 -15 5 0 7 7 4 15 -4 8 -8 15 -10 15 -2 0
-4 -7 -4 -15z"/>
<path d="M3670 3631 c-7 -14 -7 -22 1 -27 13 -8 41 24 33 37 -9 15 -23 10 -34
-10z"/>
<path d="M3740 3631 c-7 -14 -7 -22 0 -26 13 -8 40 13 40 31 0 21 -28 17 -40
-5z"/>
<path d="M1190 3615 c-10 -12 -10 -19 -2 -27 15 -15 48 14 38 31 -10 15 -21
14 -36 -4z"/>
<path d="M1777 3615 c-4 -8 -2 -17 3 -20 6 -4 10 3 10 14 0 25 -6 27 -13 6z"/>
<path d="M1075 3600 c-3 -5 0 -20 6 -32 7 -13 15 -36 18 -52 9 -43 26 -42 49
2 22 43 20 49 -20 75 -31 19 -44 21 -53 7z"/>
<path d="M2026 3591 c-18 -19 -24 -69 -12 -90 4 -6 18 -11 31 -11 32 0 57 39
53 82 -2 27 -8 34 -29 36 -15 2 -32 -5 -43 -17z"/>
<path d="M2549 3594 c-19 -23 8 -68 44 -72 23 -3 27 0 27 23 0 57 -41 85 -71
49z"/>
<path d="M3781 3601 c-8 -5 -11 -16 -8 -25 5 -14 11 -15 27 -6 21 11 23 31 4
37 -5 1 -15 -1 -23 -6z"/>
<path d="M2663 3563 c-8 -21 -24 -48 -34 -62 -24 -30 -24 -48 1 -61 16 -8 30
-5 67 15 26 14 64 25 84 25 68 0 78 59 14 80 -18 6 -39 18 -45 26 -7 7 -26 14
-42 14 -24 0 -32 -6 -45 -37z"/>
<path d="M3652 3577 c-7 -8 2 -25 28 -54 21 -24 42 -43 48 -43 11 0 21 76 12
89 -9 14 -78 20 -88 8z"/>
<path d="M1195 3560 c-4 -7 -3 -16 3 -22 13 -13 54 0 49 15 -5 16 -43 21 -52
7z"/>
<path d="M1773 3563 c-7 -2 -15 -20 -19 -39 -7 -41 16 -84 46 -84 40 0 54 76
20 110 -20 20 -26 22 -47 13z"/>
<path d="M727 3542 c-35 -38 -9 -74 32 -46 27 19 29 64 3 64 -11 0 -26 -8 -35
-18z"/>
<path d="M3771 3533 c-15 -10 -19 -19 -13 -25 13 -13 52 0 52 17 0 22 -15 25
-39 8z"/>
<path d="M902 3518 c-17 -17 -15 -58 4 -65 21 -8 46 24 42 52 -4 23 -28 31
-46 13z"/>
<path d="M1160 3506 c-10 -13 -9 -17 4 -22 22 -8 49 3 44 19 -7 18 -33 20 -48
3z"/>
<path d="M2367 3514 c-13 -13 -8 -64 7 -64 23 0 41 29 30 48 -12 19 -27 25
-37 16z"/>
<path d="M798 3499 c-22 -12 -24 -65 -4 -72 20 -8 46 24 46 56 0 28 -13 33
-42 16z"/>
<path d="M2146 3501 c-4 -7 -5 -15 -2 -18 9 -9 19 4 14 18 -4 11 -6 11 -12 0z"/>
<path d="M2425 3470 c-8 -24 1 -40 21 -40 15 0 35 39 27 53 -9 15 -42 6 -48
-13z"/>
<path d="M1884 3446 c-17 -14 -42 -28 -57 -31 -29 -8 -41 -20 -51 -51 -10 -33
15 -50 85 -58 44 -4 72 -13 95 -31 43 -33 91 -34 106 -1 9 21 6 31 -21 67 -17
24 -31 51 -31 61 0 26 -45 68 -72 68 -13 0 -37 -11 -54 -24z"/>
<path d="M2070 3438 c-24 -39 -25 -61 -5 -78 28 -23 95 22 95 65 0 53 -60 62
-90 13z"/>
<path d="M2285 3460 c-11 -17 4 -60 21 -60 8 0 17 7 21 16 11 29 -27 69 -42
44z"/>
<path d="M2950 3444 c-10 -11 -11 -20 -3 -32 17 -27 38 -20 38 12 0 34 -16 44
-35 20z"/>
<path d="M3215 3440 c-3 -5 -1 -10 4 -10 6 0 11 5 11 10 0 6 -2 10 -4 10 -3 0
-8 -4 -11 -10z"/>
<path d="M2880 3415 c0 -28 27 -45 40 -25 12 20 -1 50 -21 50 -14 0 -19 -7
-19 -25z"/>
<path d="M3571 3424 c0 -11 3 -14 6 -6 3 7 2 16 -1 19 -3 4 -6 -2 -5 -13z"/>
<path d="M2460 3401 c-25 -47 0 -69 35 -31 15 16 15 22 5 35 -17 20 -27 19
-40 -4z"/>
<path d="M3214 3412 c-16 -11 -23 -37 -14 -52 12 -20 40 -4 40 24 0 27 -10 38
-26 28z"/>
<path d="M3931 3404 c0 -11 3 -14 6 -6 3 7 2 16 -1 19 -3 4 -6 -2 -5 -13z"/>
<path d="M785 3399 c-4 -6 -5 -12 -2 -15 2 -3 7 2 10 11 7 17 1 20 -8 4z"/>
<path d="M2333 3391 c-60 -30 -53 -59 16 -68 22 -3 46 -12 52 -19 14 -17 31
-18 46 -3 8 8 4 24 -14 60 -28 54 -44 59 -100 30z"/>
<path d="M3022 3388 c-19 -19 -15 -48 7 -48 19 0 31 25 24 48 -6 15 -16 15
-31 0z"/>
<path d="M3440 3391 c0 -5 5 -13 10 -16 6 -3 10 -2 10 4 0 5 -4 13 -10 16 -5
3 -10 2 -10 -4z"/>
<path d="M3540 3371 c-5 -11 -10 -26 -10 -34 0 -21 37 -50 55 -44 15 6 20 51
9 81 -8 22 -41 20 -54 -3z"/>
<path d="M2853 3373 c-18 -6 -16 -38 2 -53 16 -13 35 -6 35 14 0 19 -24 44
-37 39z"/>
<path d="M3124 3366 c-9 -23 0 -51 16 -51 10 0 15 10 15 29 0 32 -21 47 -31
22z"/>
<path d="M3255 3359 c-9 -28 9 -46 30 -29 8 7 15 21 15 31 0 26 -37 25 -45 -2z"/>
<path d="M4057 3373 c-4 -3 -7 -11 -7 -17 0 -6 5 -5 12 2 6 6 9 14 7 17 -3 3
-9 2 -12 -2z"/>
<path d="M533 3359 c-28 -10 -29 -25 -3 -39 21 -11 60 2 60 20 0 17 -34 28
-57 19z"/>
<path d="M3917 3364 c-4 -4 -7 -25 -7 -46 0 -48 22 -60 53 -30 17 18 19 26 11
49 -9 27 -42 42 -57 27z"/>
<path d="M623 3352 c-16 -10 -46 -89 -40 -106 7 -18 96 -58 114 -52 19 8 16
34 -7 63 -11 14 -20 38 -20 52 0 15 -5 32 -12 39 -14 14 -19 14 -35 4z"/>
<path d="M1368 3348 c-7 -19 2 -38 18 -38 8 0 14 10 14 25 0 26 -24 35 -32 13z"/>
<path d="M2919 3338 c-6 -13 -20 -32 -31 -44 -17 -19 -17 -22 -3 -34 12 -10
21 -10 41 -1 14 6 43 11 64 11 33 0 40 4 40 19 0 20 -60 71 -84 71 -8 0 -21
-10 -27 -22z"/>
<path d="M3447 3353 c-14 -13 -6 -61 13 -78 26 -24 50 -13 50 24 0 42 -41 77
-63 54z"/>
<path d="M1312 3328 c2 -12 10 -23 18 -23 22 0 19 39 -3 43 -15 3 -18 -1 -15
-20z"/>
<path d="M3821 3334 c0 -11 3 -14 6 -6 3 7 2 16 -1 19 -3 4 -6 -2 -5 -13z"/>
<path d="M4011 3321 c-16 -29 -13 -71 4 -78 25 -9 56 27 53 61 -4 38 -40 49
-57 17z"/>
<path d="M1575 3299 c-9 -28 8 -45 25 -25 13 17 7 46 -9 46 -5 0 -13 -9 -16
-21z"/>
<path d="M3162 3299 c-53 -23 -54 -48 -2 -62 19 -5 42 -15 51 -23 18 -16 45
-18 54 -4 7 11 -36 103 -50 106 -5 1 -29 -6 -53 -17z"/>
<path d="M3656 3304 c-28 -27 -17 -84 15 -84 28 0 45 43 31 75 -13 29 -24 31
-46 9z"/>
<path d="M1427 3304 c-13 -13 -7 -44 8 -44 8 0 15 7 15 15 0 8 0 18 1 22 1 10
-16 15 -24 7z"/>
<path d="M3282 3298 c-19 -19 -15 -48 8 -48 25 0 44 32 28 48 -15 15 -21 15
-36 0z"/>
<path d="M1276 3291 c-8 -13 3 -38 19 -45 20 -7 28 10 15 34 -11 21 -25 26
-34 11z"/>
<path d="M3804 3276 c-9 -38 4 -66 31 -66 29 0 43 37 25 69 -15 29 -48 27 -56
-3z"/>
<path d="M921 3276 c-7 -8 -10 -20 -7 -25 4 -5 2 -12 -4 -16 -15 -9 -12 -45 5
-51 8 -4 22 0 31 7 24 19 193 -37 205 -68 5 -13 17 -23 28 -23 20 0 35 25 25
41 -3 5 0 9 5 9 17 0 13 47 -4 54 -8 3 -21 -1 -29 -9 -21 -21 -204 40 -208 69
-4 26 -31 32 -47 12z"/>
<path d="M1512 3266 c2 -15 8 -26 13 -26 15 0 12 43 -3 48 -10 3 -13 -4 -10
-22z"/>
<path d="M1627 3283 c-4 -3 -7 -15 -7 -25 0 -28 34 -19 38 10 3 21 -16 31 -31
15z"/>
<path d="M3390 3275 c0 -8 4 -15 10 -15 5 0 7 7 4 15 -4 8 -8 15 -10 15 -2 0
-4 -7 -4 -15z"/>
<path d="M470 3265 c-18 -22 -1 -37 36 -33 21 2 29 8 29 23 0 26 -46 33 -65
10z"/>
<path d="M1325 3244 c-22 -28 -25 -38 -14 -44 7 -5 22 -4 32 2 11 5 33 8 49 6
42 -7 48 18 12 48 -39 31 -47 30 -79 -12z"/>
<path d="M4106 3253 c-6 -14 -5 -15 5 -6 7 7 10 15 7 18 -3 3 -9 -2 -12 -12z"/>
<path d="M3393 3233 c-10 -26 19 -68 50 -71 23 -3 27 0 27 23 0 14 -5 35 -10
46 -13 24 -58 25 -67 2z"/>
<path d="M3543 3240 c-12 -5 -30 -29 -41 -53 -11 -24 -25 -48 -31 -51 -18 -11
-13 -44 9 -56 16 -9 29 -6 63 15 27 15 59 25 84 25 51 0 71 20 55 55 -7 14
-20 25 -30 25 -10 0 -33 11 -52 25 -19 14 -34 25 -34 24 -1 0 -11 -4 -23 -9z"/>
<path d="M1543 3227 c-50 -17 -48 -34 9 -62 65 -33 80 -29 64 17 -14 40 -25
58 -34 57 -4 -1 -21 -7 -39 -12z"/>
<path d="M2309 3238 c-1 -2 -3 -24 -5 -50 -3 -52 14 -69 41 -41 26 25 195 13
225 -17 29 -29 47 -12 48 45 1 39 -1 45 -20 45 -11 0 -26 -6 -32 -14 -16 -20
-195 -5 -208 18 -7 13 -44 23 -49 14z"/>
<path d="M1642 3218 c-16 -16 -15 -38 2 -38 7 0 19 6 25 14 16 19 -10 41 -27
24z"/>
<path d="M3003 3210 c-3 -11 -15 -22 -27 -25 -142 -33 -169 -36 -188 -18 -17
15 -20 15 -35 1 -10 -11 -13 -23 -8 -35 4 -10 8 -27 9 -38 1 -28 46 -34 53 -7
4 16 23 23 103 39 84 17 100 18 104 6 4 -8 16 -13 28 -11 18 2 22 9 20 28 -1
14 -3 32 -3 40 -4 39 -47 55 -56 20z"/>
<path d="M3908 3211 c-13 -11 -37 -23 -51 -26 -35 -9 -48 -52 -22 -72 11 -7
35 -13 56 -13 20 0 47 -8 60 -19 33 -25 51 -30 72 -19 23 12 22 39 -3 71 -11
14 -20 32 -20 41 0 20 -35 56 -54 56 -7 0 -24 -9 -38 -19z"/>
<path d="M4043 3195 c-20 -42 -8 -61 32 -51 33 8 53 49 35 71 -21 26 -49 18
-67 -20z"/>
<path d="M507 3203 c-11 -10 -8 -41 3 -48 15 -9 60 22 60 40 0 15 -50 22 -63
8z"/>
<path d="M595 3176 c-22 -16 -14 -46 13 -46 23 0 42 19 42 42 0 22 -28 24 -55
4z"/>
<path d="M1849 3118 c-1 -7 -1 -18 0 -24 1 -6 -37 -32 -83 -58 -61 -34 -91
-45 -108 -41 -34 9 -57 -18 -36 -43 8 -9 18 -25 21 -35 10 -26 50 -18 57 11 6
25 166 127 175 111 10 -15 42 -10 49 7 4 9 0 24 -7 33 -8 9 -17 24 -20 34 -7
19 -46 24 -48 5z"/>
<path d="M2160 3075 c-14 -17 -4 -55 15 -55 16 0 31 43 20 59 -9 15 -20 14
-35 -4z"/>
<path d="M2425 3070 c-3 -5 -1 -10 4 -10 6 0 11 5 11 10 0 6 -2 10 -4 10 -3 0
-8 -4 -11 -10z"/>
<path d="M2090 3045 c0 -28 27 -45 40 -25 12 20 -1 50 -21 50 -14 0 -19 -7
-19 -25z"/>
<path d="M3177 3029 c-33 -34 -30 -59 8 -59 32 0 147 -118 155 -158 7 -36 32
-39 65 -7 32 33 29 60 -6 61 -18 0 -44 20 -93 72 -37 39 -65 76 -61 82 8 13
-12 40 -29 40 -6 -1 -24 -14 -39 -31z"/>
<path d="M880 3026 c0 -14 5 -26 10 -26 6 0 10 9 10 19 0 11 -4 23 -10 26 -6
4 -10 -5 -10 -19z"/>
<path d="M2841 3037 c-1 -10 -11 -41 -22 -68 -18 -42 -30 -54 -72 -76 -29 -14
-85 -60 -131 -108 -64 -65 -93 -87 -137 -103 -69 -25 -301 -61 -469 -72 -69
-4 -133 -11 -144 -15 -40 -17 -52 77 -13 112 52 48 102 55 155 23 60 -37 113
-19 89 30 -20 41 -101 75 -177 75 -81 0 -129 -27 -159 -89 -27 -55 -26 -102 3
-159 22 -45 22 -47 5 -63 -54 -48 -73 -152 -44 -234 8 -23 15 -62 15 -86 0
-38 -6 -51 -41 -89 -37 -40 -42 -52 -49 -112 -4 -38 -11 -87 -15 -110 -6 -36
-4 -45 18 -67 25 -25 80 -36 91 -18 2 4 -4 27 -15 51 -39 87 -19 125 118 227
51 38 89 77 129 135 31 44 64 83 72 86 8 4 52 -4 98 -15 45 -12 139 -31 209
-41 70 -11 131 -23 136 -28 10 -10 25 -110 38 -257 12 -118 31 -149 91 -144
43 4 50 26 19 67 -21 28 -21 33 -10 118 15 121 43 199 105 292 41 62 60 103
86 192 18 63 36 118 40 122 4 5 21 2 38 -7 57 -30 127 -12 149 37 10 22 9 27
-12 41 -21 14 -23 21 -18 69 6 59 -11 104 -49 131 -19 13 -20 19 -10 41 14 31
15 94 2 115 -9 13 -11 13 -19 0 -5 -8 -20 -29 -33 -47 l-23 -31 -22 46 c-12
26 -22 39 -22 29z"/>
<path d="M2409 3030 c-5 -38 -3 -45 16 -45 14 0 21 8 23 28 3 22 -1 27 -17 27
-12 0 -22 -4 -22 -10z"/>
<path d="M1336 3012 c-4 -13 -5 -26 -2 -29 10 -11 18 4 14 29 l-4 23 -8 -23z"/>
<path d="M2232 3018 c-13 -13 -16 -41 -6 -51 14 -13 34 7 34 34 0 31 -9 36
-28 17z"/>
<path d="M455 3008 c-10 -33 -14 -84 -7 -94 4 -6 31 -14 60 -18 66 -9 79 10
34 52 -16 15 -32 37 -36 50 -8 24 -44 31 -51 10z"/>
<path d="M372 2997 c-10 -11 -9 -17 4 -28 18 -15 49 -1 49 22 0 19 -39 23 -53
6z"/>
<path d="M2057 2997 c-18 -12 -18 -14 1 -37 30 -37 58 -6 29 33 -10 15 -15 16
-30 4z"/>
<path d="M2334 2997 c-9 -24 0 -52 16 -52 21 0 24 39 6 55 -13 10 -17 9 -22
-3z"/>
<path d="M2465 2989 c-9 -28 9 -46 30 -29 8 7 15 21 15 31 0 26 -37 25 -45 -2z"/>
<path d="M3841 2991 c-13 -23 -6 -47 15 -55 17 -7 27 13 22 45 -4 30 -24 35
-37 10z"/>
<path d="M720 2988 c0 -9 5 -20 10 -23 13 -8 13 5 0 25 -8 13 -10 13 -10 -2z"/>
<path d="M4111 2981 c-13 -24 -13 -32 -2 -50 8 -12 12 -12 25 -2 20 17 21 45
2 60 -12 10 -17 8 -25 -8z"/>
<path d="M856 2975 c-36 -37 -25 -105 21 -122 43 -17 58 96 17 124 -19 12 -24
12 -38 -2z"/>
<path d="M2132 2978 c-7 -7 -12 -17 -12 -23 0 -6 -10 -19 -21 -29 -20 -16 -20
-19 -6 -34 13 -13 21 -13 42 -4 14 7 42 12 61 12 50 0 55 24 13 60 -37 32 -58
37 -77 18z"/>
<path d="M3772 2977 c-13 -16 3 -57 22 -57 20 0 29 16 21 39 -7 24 -31 34 -43
18z"/>
<path d="M1497 2967 c-11 -29 -9 -43 4 -30 6 6 9 19 7 29 -3 18 -4 18 -11 1z"/>
<path d="M4177 2964 c-13 -13 -8 -64 7 -64 19 0 38 26 34 47 -3 18 -29 29 -41
17z"/>
<path d="M1320 2945 c-26 -32 -9 -115 25 -115 36 0 62 89 33 118 -16 16 -43
15 -58 -3z"/>
<path d="M3921 2946 c-18 -21 -9 -51 14 -51 24 0 32 36 12 53 -11 10 -17 9
-26 -2z"/>
<path d="M1022 2930 c0 -14 2 -19 5 -12 2 6 2 18 0 25 -3 6 -5 1 -5 -13z"/>
<path d="M2372 2928 c-52 -23 -53 -48 -2 -61 19 -5 43 -15 52 -24 17 -15 55
-14 51 3 -9 38 -33 88 -44 94 -8 4 -33 -1 -57 -12z"/>
<path d="M722 2928 c-17 -17 -15 -38 8 -75 30 -50 80 -39 80 17 0 54 -55 91
-88 58z"/>
<path d="M2492 2928 c-19 -19 -15 -48 8 -48 25 0 44 32 28 48 -15 15 -21 15
-36 0z"/>
<path d="M4030 2912 c0 -32 27 -52 36 -27 9 23 0 50 -19 53 -13 3 -17 -3 -17
-26z"/>
<path d="M360 2912 c-19 -16 -20 -19 -7 -31 20 -16 60 3 55 26 -5 24 -22 26
-48 5z"/>
<path d="M1190 2916 c0 -8 5 -18 10 -21 6 -3 10 1 10 9 0 8 -4 18 -10 21 -5 3
-10 -1 -10 -9z"/>
<path d="M1440 2900 c-24 -24 -27 -82 -6 -99 42 -35 103 68 64 107 -17 17 -35
15 -58 -8z"/>
<path d="M3741 2901 c-17 -11 -6 -47 16 -55 26 -10 38 9 25 39 -12 27 -19 30
-41 16z"/>
<path d="M3815 2866 c-8 -19 -19 -37 -25 -41 -15 -10 -12 -32 6 -39 9 -4 27 0
39 8 12 8 40 16 61 18 32 2 40 7 42 25 3 17 -3 26 -21 32 -14 6 -28 15 -32 20
-3 6 -17 11 -31 11 -19 0 -28 -8 -39 -34z"/>
<path d="M986 2871 c-37 -40 -1 -122 42 -95 12 8 17 24 17 60 0 42 -3 49 -21
52 -11 2 -28 -6 -38 -17z"/>
<path d="M4100 2876 c-6 -8 -21 -16 -33 -18 -16 -2 -22 -10 -22 -28 0 -22 5
-26 43 -31 23 -3 48 -11 54 -17 31 -31 74 2 46 36 -8 9 -19 29 -26 45 -13 30
-42 36 -62 13z"/>
<path d="M4201 2868 c-11 -30 3 -47 27 -32 22 14 22 48 -1 52 -11 2 -20 -5
-26 -20z"/>
<path d="M418 2873 c-20 -5 -32 -33 -19 -46 12 -12 40 -2 48 18 7 20 -6 33
-29 28z"/>
<path d="M485 2860 c-17 -19 -17 -22 -3 -36 14 -14 17 -14 32 1 18 18 18 46 0
52 -6 2 -19 -6 -29 -17z"/>
<path d="M1186 2858 c-32 -45 -11 -108 35 -108 44 0 46 88 2 117 -19 13 -23
12 -37 -9z"/>
<path d="M656 2835 c4 -8 8 -15 10 -15 2 0 4 7 4 15 0 8 -4 15 -10 15 -5 0 -7
-7 -4 -15z"/>
<path d="M3554 2825 c-4 -8 -3 -23 0 -32 6 -15 8 -15 23 -1 16 17 12 48 -7 48
-6 0 -13 -7 -16 -15z"/>
<path d="M1557 2813 c-4 -3 -7 -11 -7 -17 0 -6 5 -5 12 2 6 6 9 14 7 17 -3 3
-9 2 -12 -2z"/>
<path d="M665 2790 c-15 -16 -16 -25 -7 -45 14 -30 55 -58 79 -53 26 5 27 47
3 86 -23 37 -49 41 -75 12z"/>
<path d="M3486 2795 c-8 -21 1 -35 20 -35 10 0 14 8 12 22 -4 27 -23 34 -32
13z"/>
<path d="M3607 2803 c-10 -9 -9 -43 1 -43 12 0 32 23 32 37 0 14 -22 18 -33 6z"/>
<path d="M821 2774 c-12 -15 -21 -32 -21 -39 0 -6 -13 -29 -30 -51 -32 -42
-37 -63 -18 -82 19 -19 64 -14 104 13 27 18 50 25 86 25 27 0 58 5 69 10 37
20 18 83 -28 95 -16 3 -42 17 -60 31 -42 32 -76 31 -102 -2z"/>
<path d="M1302 2755 c-17 -14 -37 -25 -46 -25 -20 0 -66 -44 -66 -62 1 -30 21
-42 83 -48 48 -5 74 -14 99 -34 42 -31 69 -33 94 -5 17 19 17 22 1 47 -9 15
-28 50 -41 79 -37 77 -73 91 -124 48z"/>
<path d="M1491 2766 c-22 -27 -30 -73 -16 -93 13 -17 16 -17 42 -3 38 21 61
64 47 87 -14 23 -57 28 -73 9z"/>
<path d="M3530 2750 c-8 -5 -23 -11 -33 -14 -26 -8 -16 -28 19 -39 16 -5 37
-16 46 -25 10 -8 24 -12 32 -9 12 5 12 11 2 39 -20 59 -32 68 -66 48z"/>
<path d="M3632 2744 c-25 -17 -30 -44 -8 -44 17 0 29 17 31 42 1 10 1 18 1 18
-1 0 -12 -7 -24 -16z"/>
<path d="M352 2680 c0 -14 2 -19 5 -12 2 6 2 18 0 25 -3 6 -5 1 -5 -13z"/>
<path d="M481 2654 c0 -11 3 -14 6 -6 3 7 2 16 -1 19 -3 4 -6 -2 -5 -13z"/>
<path d="M3297 2653 c-4 -3 -7 -15 -7 -25 0 -22 26 -24 34 -2 10 25 -10 45
-27 27z"/>
<path d="M347 2633 c-10 -10 -8 -52 3 -74 25 -46 74 7 52 56 -11 23 -40 33
-55 18z"/>
<path d="M3223 2614 c-8 -21 13 -42 28 -27 13 13 5 43 -11 43 -6 0 -13 -7 -17
-16z"/>
<path d="M3336 2613 c-11 -26 13 -42 29 -19 8 10 12 23 9 27 -9 15 -31 10 -38
-8z"/>
<path d="M3806 2612 c-9 -27 3 -54 23 -50 22 5 22 62 -1 66 -9 2 -19 -5 -22
-16z"/>
<path d="M438 2595 c-9 -19 -8 -29 6 -49 9 -14 22 -23 30 -20 19 7 38 53 31
75 -9 29 -53 25 -67 -6z"/>
<path d="M4082 2608 c-14 -14 -15 -37 -3 -57 8 -12 12 -12 25 -2 19 16 21 45
3 60 -10 8 -17 7 -25 -1z"/>
<path d="M3740 2600 c-11 -7 -11 -14 -2 -34 13 -29 37 -34 46 -11 12 32 -17
62 -44 45z"/>
<path d="M251 2584 c0 -11 3 -14 6 -6 3 7 2 16 -1 19 -3 4 -6 -2 -5 -13z"/>
<path d="M4140 2571 c-12 -23 -3 -51 16 -51 17 0 37 37 30 56 -8 20 -34 17
-46 -5z"/>
<path d="M3252 2565 c-36 -16 -38 -36 -6 -45 10 -3 32 -14 47 -24 40 -27 55
-10 34 41 -17 44 -29 48 -75 28z"/>
<path d="M3892 2568 c-20 -20 -15 -58 7 -58 24 0 34 25 21 51 -13 22 -13 22
-28 7z"/>
<path d="M551 2554 c0 -11 3 -14 6 -6 3 7 2 16 -1 19 -3 4 -6 -2 -5 -13z"/>
<path d="M3350 2551 c-7 -14 -7 -22 1 -27 14 -8 43 21 35 35 -11 17 -24 13
-36 -8z"/>
<path d="M4001 2551 c-14 -25 -4 -51 20 -51 23 0 26 41 5 59 -12 10 -17 8 -25
-8z"/>
<path d="M250 2522 c0 -17 3 -37 6 -46 8 -21 50 -21 58 0 9 24 -16 69 -42 72
-19 3 -22 -1 -22 -26z"/>
<path d="M512 2518 c-30 -37 -21 -93 14 -86 27 5 52 53 38 75 -14 23 -38 28
-52 11z"/>
<path d="M3707 2523 c-14 -13 -6 -43 14 -54 29 -15 42 1 30 34 -10 26 -30 35
-44 20z"/>
<path d="M3794 2508 c-18 -26 -44 -76 -44 -86 0 -18 31 -22 58 -8 15 8 44 18
65 21 28 4 37 11 37 26 0 11 -10 23 -24 29 -13 5 -27 14 -31 19 -9 15 -51 14
-61 -1z"/>
<path d="M4047 2488 c-28 -15 -37 -26 -35 -42 2 -17 12 -22 46 -27 23 -3 48
-11 54 -17 14 -14 44 -16 52 -3 4 5 -5 32 -19 60 -29 57 -40 60 -98 29z"/>
<path d="M4170 2491 c-15 -29 -12 -41 9 -41 24 0 45 25 37 45 -8 21 -33 19
-46 -4z"/>
<path d="M355 2470 c-16 -16 -35 -30 -42 -30 -19 0 -33 -41 -21 -64 8 -16 17
-17 59 -12 35 5 57 2 80 -9 36 -19 68 -16 82 7 11 16 9 20 -78 121 -22 25 -47
21 -80 -13z"/>
<path d="M3472 2480 c0 -14 2 -19 5 -12 2 6 2 18 0 25 -3 6 -5 1 -5 -13z"/>
<path d="M1277 2483 c-4 -3 -7 -11 -7 -17 0 -6 5 -5 12 2 6 6 9 14 7 17 -3 3
-9 2 -12 -2z"/>
<path d="M872 2450 c6 -42 -77 -182 -112 -190 -31 -7 -40 -47 -13 -57 10 -3
26 -13 36 -21 16 -14 19 -14 35 1 12 13 14 21 6 34 -15 24 82 183 112 183 22
0 39 24 29 40 -8 12 -65 40 -83 40 -10 0 -13 -8 -10 -30z"/>
<path d="M3621 2451 c-6 -11 -7 -22 -2 -25 5 -3 11 4 14 16 8 30 1 35 -12 9z"/>
<path d="M1210 2440 c-21 -21 -27 -64 -11 -75 17 -10 61 18 67 42 6 23 -10 53
-27 53 -5 0 -18 -9 -29 -20z"/>
<path d="M1096 2424 c-24 -23 -18 -79 8 -79 28 0 63 51 50 73 -15 24 -38 26
-58 6z"/>
<path d="M3430 2420 c-16 -29 -8 -81 13 -94 37 -22 78 69 45 102 -18 18 -46
14 -58 -8z"/>
<path d="M3552 2400 c-41 -39 -19 -115 26 -91 27 14 48 69 35 90 -15 24 -36
24 -61 1z"/>
<path d="M1370 2385 c-8 -9 -8 -15 -2 -15 12 0 26 19 19 26 -2 2 -10 -2 -17
-11z"/>
<path d="M3351 2384 c0 -11 3 -14 6 -6 3 7 2 16 -1 19 -3 4 -6 -2 -5 -13z"/>
<path d="M1282 2374 c-12 -8 -22 -26 -22 -40 0 -20 5 -24 28 -24 48 0 84 59
46 74 -22 9 -27 8 -52 -10z"/>
<path d="M3320 2330 c-13 -25 -4 -63 22 -87 19 -17 20 -17 39 6 21 26 25 71 7
89 -19 19 -56 14 -68 -8z"/>
<path d="M1105 2321 c-59 -6 -60 -7 -60 -36 0 -24 6 -33 33 -45 18 -9 50 -36
72 -60 33 -38 41 -43 57 -34 14 9 18 25 19 77 2 97 -12 108 -121 98z"/>
<path d="M3001 2314 c0 -11 3 -14 6 -6 3 7 2 16 -1 19 -3 4 -6 -2 -5 -13z"/>
<path d="M3695 2309 c-4 -6 -5 -12 -2 -15 2 -3 7 2 10 11 7 17 1 20 -8 4z"/>
<path d="M2984 2265 c-8 -31 7 -50 31 -41 22 8 16 60 -7 64 -12 2 -19 -5 -24
-23z"/>
<path d="M3627 2269 c-26 -15 -40 -58 -26 -75 18 -22 46 -16 69 13 38 48 7 92
-43 62z"/>
<path d="M3061 2257 c-15 -15 -14 -57 2 -57 32 0 51 52 23 63 -7 3 -19 0 -25
-6z"/>
<path d="M3434 2249 c-10 -12 -38 -30 -61 -40 -44 -19 -51 -35 -33 -70 9 -15
22 -19 71 -19 40 0 73 -7 99 -20 47 -24 54 -24 74 -4 22 22 20 57 -5 80 -12
10 -29 35 -38 54 -13 29 -22 36 -52 38 -26 2 -40 -3 -55 -19z"/>
<path d="M1283 2248 c-29 -14 -37 -38 -19 -56 12 -12 20 -13 45 -3 37 16 48
41 25 58 -21 15 -22 15 -51 1z"/>
<path d="M1365 2250 c-3 -6 1 -7 9 -4 18 7 21 14 7 14 -6 0 -13 -4 -16 -10z"/>
<path d="M3982 2238 c-14 -14 -16 -28 -2 -28 5 0 14 9 20 20 12 22 1 27 -18 8z"/>
<path d="M2914 2226 c-9 -23 0 -51 16 -51 10 0 15 10 15 29 0 32 -21 47 -31
22z"/>
<path d="M3826 2221 c-4 -7 -5 -15 -2 -18 9 -9 19 4 14 18 -4 11 -6 11 -12 0z"/>
<path d="M527 2213 c-4 -3 -7 -19 -7 -35 0 -32 24 -39 39 -10 15 28 -12 66
-32 45z"/>
<path d="M3095 2175 c-29 -28 -31 -43 -10 -51 23 -9 45 15 43 47 -1 16 -4 29
-6 29 -1 0 -14 -11 -27 -25z"/>
<path d="M587 2183 c-4 -3 -7 -17 -7 -30 0 -20 5 -24 23 -21 30 4 39 58 9 58
-10 0 -22 -3 -25 -7z"/>
<path d="M1490 2176 c-14 -18 -6 -50 13 -44 15 6 22 37 10 49 -6 6 -15 4 -23
-5z"/>
<path d="M3916 2161 c-19 -36 -21 -71 -3 -72 47 -5 79 24 75 65 -2 25 -8 32
-30 34 -21 3 -30 -3 -42 -27z"/>
<path d="M1434 2166 c-7 -20 2 -46 16 -46 13 0 13 47 0 55 -6 3 -13 -1 -16 -9z"/>
<path d="M2953 2158 c-47 -29 -44 -54 9 -63 24 -4 52 -14 64 -21 20 -14 54
-10 54 5 0 5 -10 28 -23 52 -27 52 -55 59 -104 27z"/>
<path d="M3778 2163 c-23 -27 -29 -53 -17 -74 25 -47 89 8 75 64 -7 31 -35 36
-58 10z"/>
<path d="M444 2156 c-9 -23 0 -51 17 -54 21 -4 32 24 19 49 -13 23 -28 25 -36
5z"/>
<path d="M4094 2126 c-10 -8 -16 -17 -13 -20 3 -3 14 3 24 14 21 23 17 26 -11
6z"/>
<path d="M1536 2113 c-8 -19 8 -38 23 -29 16 10 13 46 -3 46 -8 0 -17 -8 -20
-17z"/>
<path d="M622 2108 c-17 -17 -15 -58 2 -58 23 0 48 41 34 57 -13 16 -21 16
-36 1z"/>
<path d="M1396 2111 c-9 -14 4 -41 21 -41 9 0 13 8 11 22 -3 23 -23 35 -32 19z"/>
<path d="M487 2089 c-49 -25 -47 -51 5 -60 20 -3 48 -13 63 -23 15 -10 33 -15
41 -12 18 7 18 40 0 56 -8 6 -16 21 -18 33 -4 29 -41 31 -91 6z"/>
<path d="M4013 2097 c-12 -5 -27 -23 -34 -40 -11 -26 -10 -31 5 -42 9 -7 25
-11 36 -8 27 7 62 48 58 68 -4 23 -38 35 -65 22z"/>
<path d="M1443 2070 c-34 -42 -30 -54 15 -46 20 3 49 6 65 6 36 0 35 23 -2 49
-38 27 -51 26 -78 -9z"/>
<path d="M3730 2028 c-11 -11 -20 -21 -20 -24 0 -18 25 -46 58 -64 21 -12 50
-41 65 -66 30 -49 51 -62 76 -47 25 16 25 176 0 199 -27 25 -153 26 -179 2z"/>
<path d="M831 2024 c0 -11 3 -14 6 -6 3 7 2 16 -1 19 -3 4 -6 -2 -5 -13z"/>
<path d="M1191 2004 c0 -11 3 -14 6 -6 3 7 2 16 -1 19 -3 4 -6 -2 -5 -13z"/>
<path d="M700 1991 c0 -5 5 -13 10 -16 6 -3 10 -2 10 4 0 5 -4 13 -10 16 -5 3
-10 2 -10 -4z"/>
<path d="M2044 1986 c-9 -23 0 -51 16 -51 10 0 15 10 15 29 0 32 -21 47 -31
22z"/>
<path d="M800 1965 c-14 -36 -13 -39 10 -60 31 -28 52 -13 48 37 -2 36 -7 44
-25 46 -17 3 -26 -3 -33 -23z"/>
<path d="M1973 1974 c-7 -18 6 -45 24 -51 17 -6 26 36 13 52 -16 20 -29 19
-37 -1z"/>
<path d="M3411 1974 c0 -11 3 -14 6 -6 3 7 2 16 -1 19 -3 4 -6 -2 -5 -13z"/>
<path d="M1316 1963 c-6 -14 -5 -15 5 -6 7 7 10 15 7 18 -3 3 -9 -2 -12 -12z"/>
<path d="M4075 1970 c-3 -5 -2 -10 4 -10 5 0 13 5 16 10 3 6 2 10 -4 10 -5 0
-13 -4 -16 -10z"/>
<path d="M1174 1946 c-8 -34 3 -76 20 -76 7 0 21 9 31 20 15 16 17 26 9 48
-13 37 -51 42 -60 8z"/>
<path d="M3976 1949 c-36 -28 -32 -63 8 -67 47 -6 78 16 74 52 -2 25 -8 32
-29 34 -14 2 -37 -6 -53 -19z"/>
<path d="M707 1953 c-14 -13 -6 -61 13 -78 26 -24 50 -13 50 24 0 42 -41 77
-63 54z"/>
<path d="M941 1944 c0 -11 3 -14 6 -6 3 7 2 16 -1 19 -3 4 -6 -2 -5 -13z"/>
<path d="M2297 1954 c-4 -4 -7 -20 -7 -36 0 -23 4 -29 18 -26 11 2 17 13 17
32 0 29 -14 43 -28 30z"/>
<path d="M3126 1945 c-8 -21 10 -55 30 -55 11 0 14 9 12 32 -3 36 -31 51 -42
23z"/>
<path d="M1081 1934 c0 -11 3 -14 6 -6 3 7 2 16 -1 19 -3 4 -6 -2 -5 -13z"/>
<path d="M3402 1938 c-16 -16 -15 -43 2 -57 18 -15 39 9 34 40 -4 27 -19 34
-36 17z"/>
<path d="M1276 1925 c-21 -21 -21 -74 -1 -82 25 -9 56 27 53 61 -3 36 -27 45
-52 21z"/>
<path d="M2105 1920 c-7 -23 1 -40 20 -40 16 0 29 35 20 50 -10 17 -33 11 -40
-10z"/>
<path d="M3065 1930 c-11 -17 4 -60 21 -60 8 0 17 7 21 16 11 29 -27 69 -42
44z"/>
<path d="M2356 1914 c-19 -19 -17 -49 3 -49 7 0 20 9 28 21 12 18 12 23 -1 33
-11 9 -17 8 -30 -5z"/>
<path d="M917 1902 c-21 -23 -22 -56 -2 -72 21 -17 43 -6 51 26 12 48 -20 78
-49 46z"/>
<path d="M1935 1910 c-9 -15 3 -47 20 -54 19 -7 28 10 21 40 -6 24 -30 32 -41
14z"/>
<path d="M2214 1906 c-9 -23 0 -51 16 -51 10 0 15 10 15 29 0 32 -21 47 -31
22z"/>
<path d="M3467 1913 c-10 -10 -8 -51 2 -58 13 -8 41 23 41 46 0 19 -29 27 -43
12z"/>
<path d="M3212 1898 c-17 -17 -15 -48 4 -55 19 -7 35 14 32 41 -4 24 -20 30
-36 14z"/>
<path d="M1066 1884 c-14 -37 6 -84 35 -84 19 0 33 49 21 75 -13 28 -47 34
-56 9z"/>
<path d="M2005 1870 c-9 -16 -20 -30 -25 -30 -6 0 -10 -9 -10 -20 0 -19 13
-26 35 -19 6 1 33 5 60 8 65 8 72 35 19 69 -47 29 -60 28 -79 -8z"/>
<path d="M3324 1886 c-9 -24 0 -51 19 -54 15 -3 18 2 15 29 -3 35 -24 51 -34
25z"/>
<path d="M650 1875 c0 -8 4 -15 10 -15 5 0 7 7 4 15 -4 8 -8 15 -10 15 -2 0
-4 -7 -4 -15z"/>
<path d="M1365 1850 c-3 -5 -1 -10 4 -10 6 0 11 5 11 10 0 6 -2 10 -4 10 -3 0
-8 -4 -11 -10z"/>
<path d="M2270 1850 c-8 -5 -23 -11 -33 -14 -42 -13 -28 -56 19 -56 11 0 29
-9 39 -20 10 -11 27 -20 37 -20 23 0 35 27 19 43 -6 6 -11 19 -11 28 0 20 -26
49 -43 48 -7 0 -19 -4 -27 -9z"/>
<path d="M2390 1847 c-27 -13 -41 -57 -18 -57 24 0 40 17 43 44 2 14 3 26 2
26 -1 0 -13 -6 -27 -13z"/>
<path d="M3023 1843 c-4 -10 2 -23 16 -35 26 -20 41 -16 41 11 0 36 -45 56
-57 24z"/>
<path d="M3128 1848 c-8 -7 -25 -30 -38 -51 -29 -49 -16 -68 33 -48 17 7 49
16 70 20 21 3 38 9 37 14 0 4 0 14 0 22 0 8 -11 17 -25 21 -13 3 -29 12 -36
20 -14 17 -21 17 -41 2z"/>
<path d="M3505 1835 c-29 -28 -31 -43 -10 -51 23 -9 45 15 43 47 -1 16 -4 29
-6 29 -1 0 -14 -11 -27 -25z"/>
<path d="M663 1843 c-33 -13 3 -83 43 -83 19 0 24 5 24 26 0 51 -27 74 -67 57z"/>
<path d="M782 1828 c-7 -7 -12 -19 -12 -28 0 -9 -11 -31 -25 -50 -31 -42 -31
-58 -2 -69 16 -6 33 -2 63 15 25 15 57 24 81 24 51 0 71 20 55 55 -7 14 -20
25 -30 25 -11 0 -31 9 -45 20 -28 22 -67 26 -85 8z"/>
<path d="M3363 1818 c-46 -28 -44 -55 5 -63 20 -4 52 -14 69 -23 26 -13 35
-14 45 -4 10 10 7 22 -13 60 -29 55 -55 62 -106 30z"/>
<path d="M1170 1813 c-14 -10 -38 -25 -55 -33 -58 -29 -37 -80 34 -80 20 0 54
-11 75 -25 30 -18 44 -21 58 -14 22 12 24 52 4 69 -8 6 -20 27 -26 46 -11 31
-35 54 -57 54 -5 0 -20 -8 -33 -17z"/>
<path d="M1306 1799 c-17 -41 -11 -59 20 -59 31 0 62 45 47 69 -5 9 -20 17
-32 19 -16 3 -25 -4 -35 -29z"/>
<path d="M2832 1734 c-1 -13 3 -24 8 -24 12 0 14 37 2 44 -4 2 -9 -6 -10 -20z"/>
<path d="M2670 1716 c0 -8 5 -18 10 -21 6 -3 10 1 10 9 0 8 -4 18 -10 21 -5 3
-10 -1 -10 -9z"/>
<path d="M3658 1705 c-13 -29 -1 -49 25 -40 19 8 28 30 21 50 -9 23 -33 18
-46 -10z"/>
<path d="M3726 1684 c-19 -18 -21 -40 -5 -50 16 -9 53 31 46 50 -8 20 -21 20
-41 0z"/>
<path d="M2786 1668 c-19 -27 -20 -39 -5 -72 23 -50 64 -40 75 19 12 64 -37
101 -70 53z"/>
<path d="M3587 1683 c-10 -9 -8 -35 2 -52 8 -12 12 -12 25 -2 23 19 21 61 -2
61 -10 0 -22 -3 -25 -7z"/>
<path d="M2660 1645 c-15 -39 11 -95 43 -95 27 0 37 16 37 60 0 56 -62 83 -80
35z"/>
<path d="M3272 1658 c-14 -14 -16 -42 -3 -34 7 5 23 46 17 46 -1 0 -7 -5 -14
-12z"/>
<path d="M1880 1636 c0 -8 5 -18 10 -21 6 -3 10 1 10 9 0 8 -4 18 -10 21 -5 3
-10 -1 -10 -9z"/>
<path d="M2956 1624 c-4 -9 -4 -19 -1 -22 2 -3 7 3 11 12 4 9 4 19 1 22 -2 3
-7 -3 -11 -12z"/>
<path d="M2246 1614 c-4 -9 -4 -19 -1 -22 2 -3 7 3 11 12 4 9 4 19 1 22 -2 3
-7 -3 -11 -12z"/>
<path d="M3646 1621 c-3 -5 -22 -12 -42 -15 -29 -6 -35 -11 -32 -29 2 -15 12
-23 34 -27 17 -4 45 -18 63 -31 31 -23 33 -23 46 -6 10 14 10 25 -2 60 -8 23
-20 45 -26 49 -16 10 -35 10 -41 -1z"/>
<path d="M3749 1589 c-20 -20 -18 -39 6 -39 15 0 45 26 45 40 0 18 -32 18 -51
-1z"/>
<path d="M2590 1580 c0 -11 4 -20 9 -20 5 0 7 9 4 20 -3 11 -7 20 -9 20 -2 0
-4 -9 -4 -20z"/>
<path d="M3236 1578 c-21 -29 -21 -87 0 -95 23 -9 63 13 69 40 9 33 -11 77
-34 77 -11 0 -27 -10 -35 -22z"/>
<path d="M1854 1566 c-8 -32 2 -63 24 -71 32 -12 57 56 30 83 -20 20 -47 14
-54 -12z"/>
<path d="M2377 1583 c-4 -3 -7 -13 -7 -22 1 -13 3 -13 11 2 11 19 8 33 -4 20z"/>
<path d="M3121 1574 c0 -11 3 -14 6 -6 3 7 2 16 -1 19 -3 4 -6 -2 -5 -13z"/>
<path d="M3410 1575 c-7 -9 -11 -18 -8 -20 3 -3 11 1 18 10 7 9 11 18 8 20 -3
3 -11 -1 -18 -10z"/>
<path d="M2236 1558 c-20 -28 -20 -49 -2 -73 14 -19 15 -19 35 -1 23 21 28 65
9 84 -17 17 -25 15 -42 -10z"/>
<path d="M2906 1561 c-11 -12 -16 -31 -14 -53 2 -27 7 -34 30 -36 32 -4 51 24
46 71 -4 39 -35 48 -62 18z"/>
<path d="M1135 1539 c-9 -27 19 -59 36 -42 15 15 7 57 -13 61 -10 2 -19 -6
-23 -19z"/>
<path d="M1755 1540 c-7 -21 5 -49 29 -70 36 -29 64 41 30 74 -21 22 -51 20
-59 -4z"/>
<path d="M1069 1534 c-15 -18 -1 -47 25 -52 12 -3 16 4 16 26 0 34 -22 48 -41
26z"/>
<path d="M2130 1540 c0 -5 5 -10 11 -10 5 0 7 5 4 10 -3 6 -8 10 -11 10 -2 0
-4 -4 -4 -10z"/>
<path d="M2592 1538 c-20 -20 -14 -63 12 -87 34 -32 60 -24 64 17 6 59 -42
104 -76 70z"/>
<path d="M2327 1522 c-21 -23 -22 -56 -1 -73 14 -11 20 -9 41 15 13 16 23 38
21 50 -4 28 -39 32 -61 8z"/>
<path d="M3095 1516 c-32 -48 1 -116 43 -90 24 15 28 71 6 95 -22 25 -30 24
-49 -5z"/>
<path d="M3340 1520 c-27 -27 -26 -76 0 -90 17 -9 25 -6 50 19 32 31 38 59 18
79 -18 18 -45 15 -68 -8z"/>
<path d="M1407 1513 c-4 -3 -7 -19 -7 -35 0 -31 20 -38 40 -13 22 26 -9 72
-33 48z"/>
<path d="M1505 1510 c-3 -5 -1 -10 4 -10 6 0 11 5 11 10 0 6 -2 10 -4 10 -3 0
-8 -4 -11 -10z"/>
<path d="M1972 1508 c-18 -18 -15 -75 4 -82 27 -10 45 14 42 53 -3 38 -24 51
-46 29z"/>
<path d="M2754 1508 c-12 -5 -28 -22 -35 -37 -7 -14 -29 -43 -48 -64 -28 -30
-33 -41 -25 -54 20 -32 41 -39 76 -23 18 7 68 15 110 18 50 2 81 8 89 18 18
22 2 62 -34 80 -17 9 -41 27 -52 39 -25 29 -53 37 -81 23z"/>
<path d="M2130 1495 c-6 -8 -10 -29 -8 -47 2 -28 7 -33 28 -33 27 0 36 20 26
60 -7 28 -31 39 -46 20z"/>
<path d="M1210 1479 c-9 -15 -8 -24 1 -35 16 -19 39 0 39 32 0 30 -25 32 -40
3z"/>
<path d="M1472 1478 c-15 -15 -16 -45 -2 -53 16 -10 41 16 38 38 -4 25 -20 31
-36 15z"/>
<path d="M1706 1477 c3 -10 9 -15 12 -12 3 3 0 11 -7 18 -10 9 -11 8 -5 -6z"/>
<path d="M1324 1466 c-9 -23 0 -51 16 -51 10 0 15 10 15 29 0 32 -21 47 -31
22z"/>
<path d="M1023 1453 c-8 -21 35 -59 50 -44 14 14 -8 61 -28 61 -9 0 -18 -7
-22 -17z"/>
<path d="M2425 1459 c-4 -6 -5 -12 -2 -15 2 -3 7 2 10 11 7 17 1 20 -8 4z"/>
<path d="M1121 1448 c-66 -80 -65 -78 -47 -96 13 -14 20 -14 36 -4 11 6 37 12
57 12 21 0 44 4 52 9 16 10 6 51 -13 51 -7 0 -21 9 -31 20 -21 23 -40 26 -54
8z"/>
<path d="M1722 1444 c-25 -17 -19 -49 14 -71 44 -28 67 -1 43 51 -15 32 -32
38 -57 20z"/>
<path d="M1840 1430 c-11 -11 -20 -26 -20 -34 0 -7 -9 -25 -21 -40 -45 -57 0
-97 65 -57 18 12 49 21 69 21 50 0 67 9 67 34 0 30 -11 43 -42 51 -15 4 -34
15 -44 26 -22 24 -49 24 -74 -1z"/>
<path d="M3450 1425 c-7 -9 -8 -15 -2 -15 5 0 12 7 16 15 3 8 4 15 2 15 -2 0
-9 -7 -16 -15z"/>
<path d="M2217 1410 c-14 -11 -32 -20 -41 -20 -8 0 -23 -12 -32 -26 -15 -22
-15 -27 -2 -40 8 -8 38 -18 66 -23 29 -4 60 -15 70 -25 40 -35 96 -7 73 37 -7
12 -21 40 -33 62 -31 61 -56 70 -101 35z"/>
<path d="M2362 1405 c-25 -54 -2 -81 44 -50 35 22 31 69 -7 73 -19 2 -28 -3
-37 -23z"/>
<path d="M1384 1405 c-10 -8 -27 -15 -37 -15 -10 0 -20 -7 -23 -15 -9 -22 14
-45 46 -45 15 0 35 -9 45 -20 37 -41 82 -13 51 32 -9 12 -16 30 -16 40 0 9 -9
22 -19 28 -25 13 -23 13 -47 -5z"/>
<path d="M1512 1410 c-26 -11 -37 -33 -28 -56 6 -15 9 -15 29 -1 13 8 22 25
23 41 1 14 1 26 0 25 -1 0 -11 -4 -24 -9z"/>
<path d="M3186 1405 c-11 -8 -32 -15 -46 -15 -33 0 -63 -31 -58 -61 3 -23 34
-39 99 -53 14 -3 37 -16 50 -29 35 -35 61 -46 85 -37 31 12 35 34 14 74 -10
20 -21 51 -24 71 -4 19 -14 41 -22 50 -19 19 -73 19 -98 0z"/>
<path d="M3386 1398 c-10 -6 -25 -26 -33 -45 -13 -32 -13 -38 1 -51 12 -13 19
-13 46 -2 52 22 68 79 27 97 -16 7 -29 8 -41 1z"/>
<path d="M2872 1278 c-7 -7 -12 -17 -12 -24 0 -6 -7 -14 -15 -18 -21 -8 -19
-33 3 -45 13 -7 22 -7 29 0 12 12 186 -98 178 -111 -3 -5 -2 -15 1 -24 8 -21
43 -20 51 2 4 9 12 21 20 25 7 4 13 16 13 26 0 22 -27 36 -44 22 -15 -12 -176
96 -176 118 0 17 -18 41 -30 41 -3 0 -11 -5 -18 -12z"/>
<path d="M2472 1267 c-7 -7 -7 -18 -2 -27 13 -21 -113 -158 -148 -162 -19 -2
-28 -10 -30 -25 -2 -13 1 -23 7 -23 6 0 20 -10 31 -22 16 -18 24 -20 38 -12
10 7 16 21 14 33 -5 30 111 159 146 163 34 4 44 43 14 53 -11 3 -23 12 -26 20
-7 18 -30 19 -44 2z"/>
<path d="M1773 1218 c-5 -7 -9 -31 -9 -53 1 -30 5 -41 19 -43 10 -2 24 3 30
12 17 22 192 7 210 -19 19 -25 52 -16 53 15 1 14 5 33 9 42 10 25 -28 43 -49
23 -23 -24 -216 -15 -216 10 0 7 -7 16 -16 19 -21 8 -20 8 -31 -6z"/>
<path d="M1583 1184 c-7 -20 9 -49 28 -49 22 0 18 59 -4 63 -9 2 -20 -4 -24
-14z"/>
<path d="M2677 1174 c-4 -4 -7 -14 -7 -23 0 -11 3 -12 11 -4 6 6 10 16 7 23
-2 6 -7 8 -11 4z"/>
<path d="M1515 1160 c-9 -15 23 -62 38 -57 7 2 13 11 15 21 7 33 -37 62 -53
36z"/>
<path d="M1671 1146 c-17 -20 -4 -58 17 -54 11 2 17 13 17 32 0 33 -16 44 -34
22z"/>
<path d="M2805 1129 c-4 -6 -5 -12 -2 -15 2 -3 7 2 10 11 7 17 1 20 -8 4z"/>
<path d="M2670 1115 c-16 -19 -16 -73 0 -89 30 -30 68 56 39 90 -15 18 -23 18
-39 -1z"/>
<path d="M1586 1084 c-9 -8 -16 -24 -16 -34 0 -10 -4 -22 -10 -25 -15 -9 -12
-45 5 -51 8 -3 26 4 41 15 15 12 35 21 46 21 31 0 58 19 52 35 -4 8 -26 24
-51 35 -54 24 -48 24 -67 4z"/>
<path d="M2768 1089 c-23 -13 -25 -77 -3 -86 37 -13 72 56 43 85 -14 14 -18
14 -40 1z"/>
<path d="M1494 1075 c-8 -20 13 -45 37 -45 21 0 24 12 9 41 -13 23 -38 25 -46
4z"/>
<path d="M2554 1026 c-8 -31 2 -62 23 -70 20 -8 43 11 43 36 0 54 -54 81 -66
34z"/>
<path d="M2855 1010 c-3 -5 -1 -10 4 -10 6 0 11 5 11 10 0 6 -2 10 -4 10 -3 0
-8 -4 -11 -10z"/>
<path d="M1865 988 c-17 -44 14 -88 34 -50 8 16 7 25 -8 44 -17 20 -20 21 -26
6z"/>
<path d="M2802 965 c-27 -59 -3 -89 42 -54 42 33 31 79 -18 79 -7 0 -18 -11
-24 -25z"/>
<path d="M1927 958 c-6 -22 7 -48 25 -48 11 0 27 42 21 58 -8 20 -40 14 -46
-10z"/>
<path d="M2659 963 c-8 -9 -28 -22 -45 -29 -17 -7 -34 -22 -37 -34 -8 -31 18
-50 71 -50 31 0 55 -7 72 -20 29 -23 51 -25 68 -8 17 17 15 43 -4 58 -8 8 -22
29 -30 49 -8 19 -20 39 -27 43 -20 13 -54 9 -68 -9z"/>
<path d="M2210 931 c0 -5 5 -13 10 -16 6 -3 10 -2 10 4 0 5 -4 13 -10 16 -5 3
-10 2 -10 -4z"/>
<path d="M1797 923 c-12 -11 -7 -40 8 -53 25 -20 42 2 27 35 -12 25 -23 31
-35 18z"/>
<path d="M2346 907 c3 -10 9 -15 12 -12 3 3 0 11 -7 18 -10 9 -11 8 -5 -6z"/>
<path d="M1977 904 c-10 -10 -9 -52 2 -59 14 -8 43 25 39 44 -3 17 -29 26 -41
15z"/>
<path d="M2220 885 c-28 -34 31 -108 62 -77 13 13 4 55 -18 76 -19 20 -28 20
-44 1z"/>
<path d="M1852 861 c-42 -36 -41 -67 3 -64 17 1 47 -3 67 -9 28 -8 41 -8 52 1
13 11 10 19 -21 57 -21 24 -44 44 -53 44 -8 -1 -30 -14 -48 -29z"/>
<path d="M2352 868 c-17 -17 -15 -42 6 -68 35 -43 70 7 42 61 -12 22 -30 25
-48 7z"/>
<path d="M2110 841 c0 -5 7 -12 16 -15 14 -5 15 -4 4 9 -14 17 -20 19 -20 6z"/>
<path d="M2143 809 c-30 -30 38 -90 72 -65 15 11 16 16 5 37 -21 39 -54 51
-77 28z"/>
<path d="M2271 747 c-16 -20 -17 -157 0 -168 20 -13 27 -11 45 10 34 41 72 77
105 102 33 26 34 27 16 47 -15 16 -31 20 -87 20 -43 1 -72 -4 -79 -11z"/>
<path d="M2120 710 c0 -5 5 -10 11 -10 5 0 7 5 4 10 -3 6 -8 10 -11 10 -2 0
-4 -4 -4 -10z"/>
<path d="M2150 689 c-15 -28 12 -59 52 -59 41 0 48 27 14 57 -34 28 -52 29
-66 2z"/>
<path d="M4007 463 c-10 -10 -8 -42 3 -63 14 -27 40 -14 40 19 0 36 -25 62
-43 44z"/>
<path d="M3938 435 c-8 -19 -8 -29 0 -37 18 -18 42 -1 42 32 0 38 -26 41 -42
5z"/>
<path d="M3463 429 c25 -14 25 -163 0 -177 -12 -7 -4 -10 28 -9 24 0 36 2 27
4 -16 4 -18 17 -18 93 0 76 2 89 18 93 9 3 -3 5 -28 6 -35 0 -41 -2 -27 -10z"/>
<path d="M3625 424 c-8 -9 -15 -23 -15 -31 0 -20 52 -103 80 -128 23 -21 19
-24 80 62 32 44 36 63 20 93 -9 16 -22 19 -80 19 -49 0 -75 -5 -85 -15z"/>
<path d="M3890 340 c0 -25 4 -31 18 -28 11 2 17 12 17 28 0 16 -6 26 -17 28
-14 3 -18 -3 -18 -28z"/>
<path d="M4055 360 c-9 -15 4 -50 20 -50 16 0 29 35 20 50 -3 5 -12 10 -20 10
-8 0 -17 -5 -20 -10z"/>
<path d="M3956 310 c-38 -46 -26 -61 47 -58 34 2 62 8 64 15 5 13 -56 73 -74
73 -6 0 -23 -14 -37 -30z"/>
</g>
</svg>
